<svg width="24" height="24" viewBox="0 0 24 24" fill="none" xmlns="http://www.w3.org/2000/svg">
<path fill-rule="evenodd" clip-rule="evenodd" d="M12.0004 22.5C13.6107 22.5 16.3641 20.4 16.3641 12C16.3641 3.6 13.6107 1.5 12.0004 1.5C10.3901 1.5 7.63672 3.74151 7.63672 12C7.63672 20.2585 10.3901 22.5 12.0004 22.5Z" stroke="#43445C" stroke-width="1.2" stroke-linecap="round" stroke-linejoin="round"/>
<path fill-rule="evenodd" clip-rule="evenodd" d="M2.55209 17.5C3.35724 18.9062 6.62346 20.2105 14.1815 15.8105C21.7395 11.4105 22.2524 7.90619 21.4472 6.50004C20.6421 5.09389 17.2486 3.86363 9.81786 8.18954C2.38712 12.5154 1.74696 16.0939 2.55209 17.5Z" stroke="#43445C" stroke-width="1.2" stroke-linecap="round" stroke-linejoin="round"/>
<path fill-rule="evenodd" clip-rule="evenodd" d="M2.55229 6.50004C1.74716 7.90619 2.25999 11.4105 9.81806 15.8105C17.3761 20.2105 20.6423 18.9062 21.4474 17.5C22.2526 16.0939 21.6124 12.5154 14.1817 8.18954C6.75096 3.86363 3.35744 5.09389 2.55229 6.50004Z" stroke="#43445C" stroke-width="1.2" stroke-linecap="round" stroke-linejoin="round"/>
</svg>
