<svg width="24" height="24" viewBox="0 0 24 24" fill="none" xmlns="http://www.w3.org/2000/svg"><path d="M10.3589 2.36601C9.5763 2.21188 8.76562 2.29342 8.02945 2.6003C7.29328 2.90717 6.66472 3.42559 6.22335 4.08991C5.78218 4.75394 5.54788 5.53389 5.55006 6.33109V6.33004L6.25006 6.33005L5.55007 6.33215L5.55006 6.33109C5.5502 6.85967 5.65457 7.38304 5.85722 7.87123C6.06 8.35975 6.3572 8.80345 6.73177 9.17691C7.10635 9.55036 7.55094 9.84621 8.04007 10.0476C8.52887 10.2487 9.05254 10.3515 9.58112 10.3501H9.58007L9.58006 9.65004L9.58217 10.3501C10.379 10.3497 11.1579 10.113 11.8203 9.67002C12.4833 9.22666 12.9998 8.59654 13.3045 7.85945C13.6091 7.12236 13.6882 6.31144 13.5318 5.52937C13.3753 4.7473 12.9903 4.02924 12.4254 3.46612C11.8606 2.903 11.1414 2.52014 10.3589 2.36601ZM8.56812 3.89252C9.04855 3.69225 9.5776 3.63904 10.0883 3.73962C10.599 3.84021 11.0684 4.09006 11.437 4.45756C11.8056 4.82507 12.0569 5.29366 12.159 5.80405C12.2611 6.31443 12.2095 6.84364 12.0106 7.32467C11.8118 7.8057 11.4747 8.21693 11.0421 8.50627C10.6094 8.79559 10.1006 8.95005 9.58006 8.95005H9.57795C9.23323 8.9511 8.89168 8.88408 8.5729 8.75288C8.25412 8.62168 7.96436 8.42886 7.72023 8.18546C7.4761 7.94207 7.28241 7.65289 7.15025 7.33451C7.01809 7.01612 6.95006 6.67478 6.95007 6.33005L6.95006 6.32794C6.9485 5.80744 7.10141 5.2982 7.38945 4.86465C7.67749 4.43112 8.08769 4.09279 8.56812 3.89252ZM16.4121 2.88095C16.0812 2.68099 15.6509 2.78712 15.4509 3.118C15.2509 3.44887 15.3571 3.87919 15.688 4.07914C16.0754 4.31332 16.3959 4.64356 16.6184 5.03789C16.8408 5.43222 16.9577 5.8773 16.9577 6.33005C16.9577 6.78279 16.8408 7.22787 16.6184 7.62221C16.3959 8.01655 16.0754 8.34678 15.688 8.58095C15.3571 8.78091 15.2509 9.21122 15.4509 9.54211C15.6509 9.87297 16.0812 9.97911 16.4121 9.77916C17.0058 9.42032 17.4969 8.91431 17.8377 8.31006C18.1786 7.70582 18.3577 7.02381 18.3577 6.33005C18.3577 5.63629 18.1786 4.95429 17.8377 4.35004C17.4969 3.74579 17.0058 3.23977 16.4121 2.88095ZM8.49927 12.7701H10.6604C11.6946 12.7701 12.5156 12.7701 13.1777 12.8236C13.8537 12.8783 14.4259 12.9922 14.9461 13.2556L14.9479 13.2564C15.7935 13.6874 16.4812 14.3748 16.9126 15.2201C17.182 15.7408 17.299 16.3114 17.3551 16.9872C17.41 17.6487 17.41 18.4703 17.41 19.5087V20.1101C17.41 20.4967 17.0966 20.8101 16.71 20.8101H2.45C2.0634 20.8101 1.75 20.4967 1.75 20.1101V19.5087C1.74999 18.4703 1.74999 17.6487 1.8049 16.9872C1.86107 16.3104 1.97829 15.7391 2.24857 15.2179L2.24926 15.2166C2.68578 14.3791 3.36898 13.6959 4.20645 13.2594L4.21385 13.2555C4.73362 12.9924 5.30305 12.8784 5.97847 12.8236C6.63929 12.7701 7.46034 12.7701 8.49927 12.7701ZM4.84974 14.5028C4.26856 14.8068 3.79439 15.2814 3.49108 15.863C3.34157 16.1516 3.24889 16.5152 3.2001 17.103C3.15258 17.6755 3.15013 18.4014 3.15001 19.4101H16.01C16.0099 18.4014 16.0074 17.6755 15.9599 17.103C15.9111 16.5148 15.8183 16.1511 15.6686 15.8623L15.6663 15.858C15.3693 15.2753 14.8956 14.8014 14.313 14.5042C14.0234 14.3578 13.6558 14.2669 13.0648 14.2191C12.4658 14.1706 11.7014 14.1701 10.63 14.1701H8.53C7.45351 14.1701 6.6892 14.1706 6.09153 14.2191C5.5044 14.2666 5.13939 14.357 4.84974 14.5028ZM19.6997 13.2573C19.3557 13.0808 18.9338 13.2166 18.7573 13.5605C18.5808 13.9045 18.7166 14.3264 19.0605 14.5029C19.6455 14.803 20.1229 15.2771 20.4273 15.8597C20.5732 16.1494 20.6636 16.5144 20.7111 17.1016C20.7596 17.6993 20.7601 18.4636 20.7601 19.5401V20.1101C20.7601 20.4967 21.0735 20.8101 21.4601 20.8101C21.8467 20.8101 22.1601 20.4967 22.1601 20.1101V19.5094C22.1601 18.4704 22.1601 17.6494 22.1066 16.9886C22.0518 16.3131 21.9378 15.7437 21.6747 15.224L21.671 15.2168C21.2327 14.3752 20.5439 13.6905 19.6997 13.2573Z" fill="#43445C" /></svg>