<svg width="400" height="400" viewBox="0 0 400 400" fill="none" xmlns="http://www.w3.org/2000/svg">
<g clip-path="url(#clip0_3450_3829)">
<path d="M239.504 218.578L235.82 218.32L232.305 217.719L228.93 216.781L225.695 215.52L222.574 213.922L219.672 212.07L216.965 209.961L214.445 207.574L212.164 204.957L210.141 202.156L208.387 199.152L206.887 195.926L205.699 192.594L204.836 189.117L204.305 185.508L204.117 181.719L204.305 177.941L204.836 174.32L205.699 170.855L206.887 167.52L208.387 164.293L210.141 161.289L212.164 158.48L214.445 155.863L216.965 153.484L219.672 151.367L222.574 149.523L225.695 147.93L228.93 146.668L232.305 145.727L235.82 145.129L239.504 144.871L244.02 145.164L248.406 146.039L252.695 147.496L252.598 144.871L252.785 140.965L253.387 137.203L254.422 133.555L255.859 130.055L257.668 126.781L259.852 123.723L262.371 120.93L265.203 118.461L268.375 116.285L271.785 114.527L275.281 113.219L278.887 112.344L282.562 111.91H286.23L289.918 112.344L293.516 113.219L297.012 114.527L300.422 116.285L303.594 118.461L306.426 120.93L308.945 123.723L311.129 126.781L312.938 130.055L314.375 133.555L315.41 137.203L316.02 140.965L316.199 144.871L315.937 149.137L315.156 153.273L313.852 157.336L316.391 155.91L319.004 154.738L321.719 153.816L324.516 153.164L327.348 152.758L330.234 152.629L334.613 152.988L338.742 153.883L342.645 155.32L346.348 157.266L349.711 159.613L352.766 162.406L355.457 165.574L357.723 169.039L359.574 172.855L360.93 176.871L361.766 181.109L362.062 185.598L361.766 190.094L360.93 194.332L359.574 198.352L357.723 202.164L355.457 205.629L352.766 208.801L349.711 211.594L346.348 213.941L342.645 215.887L338.742 217.324L334.613 218.219L330.234 218.578H239.504Z" fill="url(#paint0_linear_3450_3829)" fill-opacity="0.2"/>
<path d="M32.2383 309.016L31.8555 307.25L30.8672 302.41L29.5195 295.184L28.0703 286.262L27.3828 281.418L26.7539 276.328L26.2266 271.195L25.8281 266.074L25.582 260.992L25.5312 256.184L25.6172 253.004L25.8164 250.062L26.1133 247.348L26.5664 244.652L27.1445 242.301L27.8281 240.258L28.4922 238.766L29.2305 237.508L30.0391 236.457L30.918 235.594L32.1836 234.652L33.3984 233.93L34.5703 233.402L35.7148 233.059L37.3047 232.809L38.8516 232.805L40.3672 233.043L41.8555 233.484L43.3047 234.098L44.7266 234.883L46.7422 236.281L48.6328 237.895L50.3867 239.652L51.9375 241.414L53.3516 243.195L54.4844 244.762L56.125 247.262L56.707 248.246L56.2695 246.648L55.1641 242.289L53.7109 235.82L52.9531 232.063L52.2031 227.887L51.5352 223.598L50.9609 219.137L50.5391 214.645L50.293 210.223L50.2539 207.277L50.3281 204.469L50.5117 201.793L50.8438 199.129L51.3203 196.703L51.9258 194.492L52.5195 192.867L53.207 191.418L53.9805 190.125L54.8398 188.977L55.8359 187.949L56.9492 187.098L58.1875 186.41L59.5703 185.891L61.0195 185.598L62.4141 185.52L63.7812 185.656L65.125 186L66.418 186.52L67.6992 187.211L68.9844 188.082L70.2695 189.152L71.8438 190.719L73.4062 192.535L74.9688 194.633L76.3984 196.82L77.8047 199.18L79.1719 201.719L81.0703 205.625L82.8398 209.691L84.4766 213.809L85.9414 217.828L87.2812 221.797L88.4219 225.41L90.2461 231.715L91.3711 236.027L91.7578 237.625L91.582 236.031L91.2734 231.793L91.1719 229.031L91.1602 225.742L91.2734 222.332L91.5664 218.699L91.875 216.266L92.2969 213.863L92.832 211.488L93.5078 209.16L94.3203 206.98L95.2773 204.938L96.1211 203.477L97.0625 202.148L98.0977 200.949L99.2344 199.871L100.477 198.938L101.852 198.168L103.363 197.559L105.035 197.109L106.387 196.988L107.738 197.113L109.113 197.492L110.535 198.148L111.844 198.965L113.195 199.996L114.582 201.266L116.016 202.797L117.758 204.926L119.535 207.379L121.348 210.184L123.035 213.055L124.719 216.133L126.395 219.43L128.762 224.461L131.023 229.66L133.16 234.906L135.109 240L136.938 245.016L138.52 249.566L141.117 257.484L142.77 262.879L143.355 264.871L32.2383 309.016Z" fill="url(#paint1_linear_3450_3829)"/>
<path d="M396.875 322.969L396.777 325.062L396.484 327.152L396.008 329.246L395.316 331.367L394.41 333.52L393.266 335.707L391.801 338.043L390.043 340.418L387.969 342.84L385.535 345.312L382.711 347.844L379.969 350.039L376.914 352.258L373.52 354.496L369.762 356.754L365.617 359.031L360.594 361.535L355.07 364.023L349.008 366.488L342.379 368.93L335.371 371.258L327.93 373.477L320.035 375.59L312.129 377.488L303.852 379.258L295.211 380.895L286.559 382.34L277.625 383.637L268.402 384.777L259.172 385.734L249.738 386.527L240.105 387.16L230.465 387.609L220.707 387.879L210.824 387.969L200.945 387.879L191.184 387.609L181.547 387.16L171.906 386.527L162.477 385.734L153.25 384.777L144.023 383.637L135.09 382.34L126.438 380.895L117.793 379.258L109.523 377.488L101.609 375.59L93.7188 373.477L86.2773 371.258L79.2695 368.93L72.6406 366.488L66.582 364.023L61.0586 361.535L56.0352 359.031L51.8867 356.754L48.1289 354.496L44.7344 352.258L41.6797 350.039L38.9414 347.844L36.1172 345.312L33.6836 342.84L31.6055 340.418L29.8477 338.043L28.3867 335.707L27.2383 333.52L26.3359 331.367L25.6445 329.246L25.1641 327.152L24.875 325.062L24.7773 322.969L24.875 320.875L25.1641 318.785L25.6445 316.691L26.3359 314.57L27.2383 312.418L28.3867 310.23L29.8477 307.895L31.6055 305.52L33.6836 303.098L36.1172 300.625L38.9414 298.094L41.6797 295.898L44.7344 293.68L48.1289 291.441L51.8867 289.184L56.0352 286.906L61.0586 284.402L66.582 281.914L72.6406 279.449L79.2695 277.008L86.2773 274.68L93.7188 272.461L101.609 270.348L109.523 268.449L117.793 266.68L126.438 265.043L135.09 263.598L144.023 262.301L153.25 261.16L162.477 260.203L171.906 259.41L181.547 258.777L191.184 258.328L200.945 258.059L210.824 257.969L220.707 258.059L230.465 258.328L240.105 258.777L249.738 259.41L259.172 260.203L268.402 261.16L277.625 262.301L286.559 263.598L295.211 265.043L303.852 266.68L312.129 268.449L320.035 270.348L327.93 272.461L335.375 274.68L342.379 277.008L349.008 279.449L355.07 281.914L360.594 284.402L365.617 286.906L369.762 289.184L373.52 291.441L376.914 293.68L379.969 295.898L382.711 298.094L385.535 300.625L387.969 303.098L390.043 305.52L391.801 307.895L393.266 310.23L394.41 312.418L395.316 314.57L396.008 316.691L396.484 318.785L396.777 320.875L396.875 322.969Z" fill="url(#paint2_linear_3450_3829)" fill-opacity="0.0617785"/>
<path d="M194.98 148.16V198.559L278.707 196.238V158.395L194.98 148.16Z" fill="#DBDFE6"/>
<path d="M194.98 148.16V198.559L127.742 196.238V163.035L194.98 148.16Z" fill="#D0D7E0"/>
<path d="M204.664 173.793V283.391L278.707 268.523V158.73L204.664 173.793Z" fill="url(#paint3_linear_3450_3829)"/>
<path d="M204.66 283.391L127.742 269.633V162.738L204.66 173.551V283.391Z" fill="url(#paint4_linear_3450_3829)"/>
<path d="M127.742 162.738L106.074 183.98L181.625 197.691L204.992 173.555L127.742 162.738Z" fill="url(#paint5_linear_3450_3829)"/>
<path d="M226.707 196.238L300.941 180.02L278.895 158.781L204.285 173.453L226.707 196.238Z" fill="url(#paint6_linear_3450_3829)"/>
<path d="M46.0742 280.973L47.0391 281.289L49.6016 281.961L51.2695 282.281L53.2539 282.551L55.3086 282.684L57.5 282.633L58.957 282.477L60.3984 282.195L61.8281 281.781L63.2031 281.223L64.5078 280.484L65.75 279.566L66.8516 278.484L67.8555 277.156L68.7539 275.555L69.2813 274.301L69.7266 272.859L70.0859 271.211L70.3398 269.32L71.0859 266.703L71.8555 264.625L72.6367 263.008L73.582 261.469L74.4805 260.309L75.3242 259.461L76.2773 258.723L77.1289 258.215L77.8828 257.898L79.0195 257.602L79.7969 257.535L80.5508 257.586L79.7109 257.504L78.8398 257.527L77.582 257.727L76.7227 257.965L75.7773 258.363L74.7305 258.945L73.7695 259.645L72.7695 260.602L71.7383 261.859L70.8633 263.227L70.0039 264.973L69.1797 267.172L67.0508 266.773L65.1211 266.551L63.3672 266.48L61.7734 266.555L59.6367 266.855L57.75 267.34L56.0977 267.988L54.5156 268.82L53.1289 269.746L51.9219 270.758L50.8047 271.887L49.8516 273.02L49.043 274.156L48 275.918L47.2539 277.469L46.668 278.945L46.3359 279.977L46.0742 280.973Z" fill="url(#paint7_linear_3450_3829)"/>
<path d="M274.258 312.047L275.184 312.258L277.578 312.613L279.109 312.715L280.863 312.699L282.641 312.512L284.441 312.098L285.602 311.676L286.699 311.109L287.738 310.391L288.656 309.531L289.469 308.465L290.168 307.168L290.555 306.148L290.855 304.965L291.059 303.594L291.148 302.008L291.531 300.059L291.961 298.5L292.426 297.273L293.016 296.098L293.594 295.195L294.156 294.523L295.102 293.695L295.918 293.223L296.727 292.937L297.285 292.836L297.836 292.824L297.223 292.82L296.59 292.895L295.684 293.121L294.754 293.508L293.691 294.191L293.035 294.762L292.371 295.523L291.703 296.5L291.148 297.551L290.633 298.875L290.172 300.523L288.34 300.363L286.711 300.352L285.273 300.473L284 300.711L282.305 301.227L280.871 301.879L279.648 302.656L278.527 303.586L277.59 304.555L276.816 305.562L275.848 307.168L275.184 308.633L274.695 310.051L274.434 311.059L274.258 312.047Z" fill="url(#paint8_linear_3450_3829)"/>
<path d="M65.6875 112.559L64.2813 112.457L62.9648 112.176L61.7148 111.719L60.5313 111.098L59.4531 110.34L58.4727 109.434L57.6094 108.41L56.8828 107.285L56.2852 106.047L55.8516 104.742L55.582 103.363L55.4844 101.898L55.582 100.434L55.8516 99.0547L56.2852 97.7461L56.8828 96.5078L57.6094 95.3828L58.4727 94.3594L59.4531 93.457L60.5313 92.6953L61.7148 92.0742L62.9648 91.6172L64.2813 91.3398L65.6875 91.2383L66.9805 91.3203L68.2383 91.5742L69.4688 91.9961L69.4414 91.2383L69.4844 90.1094L69.6563 89.0234L69.9492 87.9727L70.3594 86.9648L70.8789 86.0195L71.5039 85.1328L72.2227 84.3281L73.0391 83.6133L73.9531 82.9844L74.9336 82.4766L75.9375 82.0977L76.9805 81.8438L78.0391 81.7188H79.0938L80.1563 81.8438L81.1953 82.0977L82.2031 82.4766L83.1797 82.9844L84.0938 83.6133L84.9063 84.3281L85.6328 85.1328L86.2578 86.0195L86.7734 86.9648L87.1836 87.9727L87.4766 89.0234L87.6484 90.1094L87.6953 91.2383L87.6172 92.4688L87.3945 93.668L87.0195 94.8438L88.1172 94.2539L89.2773 93.8281L90.4805 93.5664L91.7188 93.4805L92.9766 93.5977L94.1602 93.8633L95.2773 94.2852L96.3398 94.8516L97.3047 95.5352L98.1797 96.3438L98.9492 97.2539L99.5977 98.2578L100.129 99.3516L100.516 100.508L100.754 101.727L100.84 103.02L100.754 104.313L100.516 105.531L100.129 106.688L99.5977 107.781L98.9492 108.785L98.1797 109.695L97.3047 110.504L96.3398 111.188L95.2773 111.754L94.1602 112.176L92.9766 112.441L91.7188 112.559H65.6875Z" fill="url(#paint9_linear_3450_3829)" fill-opacity="0.2"/>
<path d="M252.629 72.3281L251.492 71.9062L248.469 71L246.492 70.543L244.145 70.1406L241.695 69.8984L239.094 69.8633L237.348 69.9844L235.621 70.2617L233.902 70.6914L232.242 71.3008L230.66 72.1211L229.145 73.1641L228.117 74.0664L227.152 75.1328L226.25 76.375L225.406 77.8125L224.73 79.2812L224.141 80.9766L223.648 82.9297L223.266 85.168L222.453 87.75L221.633 89.8789L220.813 91.6094L219.848 93.2773L218.93 94.6055L218.047 95.6406L217.059 96.5859L216.148 97.2969L215.309 97.8125L214.004 98.3906L212.934 98.6758L211.934 98.7969L211.262 98.793L210.633 98.707L211.336 98.8164L212.082 98.8594L213.191 98.8125L214.387 98.625L215.824 98.2031L216.77 97.8008L217.777 97.2383L218.848 96.4883L219.836 95.6367L220.848 94.5469L221.887 93.1797L222.789 91.7266L223.684 89.9453L224.559 87.7773L227.078 88.3398L229.367 88.6914L231.453 88.8477L233.348 88.8281L235.297 88.6484L237.074 88.3398L238.695 87.9102L240.172 87.3633L242.086 86.4375L243.773 85.3945L245.254 84.2383L246.625 82.9453L247.809 81.6367L248.816 80.3164L250.129 78.2617L251.082 76.4492L251.84 74.7109L252.277 73.5L252.629 72.3281Z" fill="url(#paint10_linear_3450_3829)"/>
<path d="M153.367 142.422L156.008 143.168L158.512 143.715L160.879 144.078L163.125 144.262L165.43 144.297L167.57 144.184L169.559 143.93L171.406 143.547L173.262 143.012L174.93 142.375L176.426 141.648L177.766 140.836L179.043 139.875L180.117 138.859L181.012 137.797L181.742 136.68L182.316 135.465L182.695 134.227L182.887 132.957L182.883 131.633L182.687 130.344L182.281 129.027L181.641 127.672L180.742 126.258L179.781 125.16L178.922 124.48L178.141 124.113L177.297 123.969L176.527 124.047L175.805 124.352L175.152 124.828L174.574 125.453L174.059 126.258L173.668 127.137L173.391 128.086L173.23 129.129L173.215 130.176L173.352 131.215L173.648 132.25L174.109 133.215L174.762 134.102L175.633 134.918L176.363 135.406L177.238 135.824L178.281 136.168L179.512 136.418L180.707 136.527L182.102 136.52L183.727 136.363L185.613 136.043L188.016 135.437L190.875 134.477L194.262 133.086L200.363 128.781L203.219 126.672L205.934 124.469L207.66 122.914L209.363 121.199L211.043 119.312L212.602 117.332L214.172 115.059L215.754 112.461L217.184 109.789L218.645 106.672L220.137 103.066" stroke="#BCC2C9" stroke-linecap="round" stroke-dasharray="2 2"/>
</g>
<defs>
<linearGradient id="paint0_linear_3450_3829" x1="283.09" y1="111.91" x2="283.09" y2="218.578" gradientUnits="userSpaceOnUse">
<stop stop-color="#012969" stop-opacity="0.6"/>
<stop offset="1" stop-color="white"/>
</linearGradient>
<linearGradient id="paint1_linear_3450_3829" x1="84.4434" y1="185.52" x2="85.1828" y2="280.117" gradientUnits="userSpaceOnUse">
<stop stop-color="#F8F8F8" stop-opacity="0.71"/>
<stop offset="1" stop-color="#E2E7F2" stop-opacity="0"/>
</linearGradient>
<linearGradient id="paint2_linear_3450_3829" x1="210.826" y1="257.969" x2="210.826" y2="340.993" gradientUnits="userSpaceOnUse">
<stop stop-color="#012969" stop-opacity="0.620342"/>
<stop offset="1" stop-color="white"/>
</linearGradient>
<linearGradient id="paint3_linear_3450_3829" x1="255.362" y1="216.448" x2="202.941" y2="222.862" gradientUnits="userSpaceOnUse">
<stop stop-color="#EAEEF2"/>
<stop offset="1" stop-color="#E1E6ED"/>
</linearGradient>
<linearGradient id="paint4_linear_3450_3829" x1="202.819" y1="219.566" x2="122.321" y2="218.732" gradientUnits="userSpaceOnUse">
<stop stop-color="#EAEEF2"/>
<stop offset="1" stop-color="#E1E6ED"/>
</linearGradient>
<linearGradient id="paint5_linear_3450_3829" x1="178.383" y1="196.049" x2="178.383" y2="170.323" gradientUnits="userSpaceOnUse">
<stop stop-color="#F8F8F8"/>
<stop offset="1" stop-color="#E2E7F2"/>
</linearGradient>
<linearGradient id="paint6_linear_3450_3829" x1="233.765" y1="194.702" x2="234.056" y2="163.489" gradientUnits="userSpaceOnUse">
<stop stop-color="#F8F8F8"/>
<stop offset="1" stop-color="#E2E7F2"/>
</linearGradient>
<linearGradient id="paint7_linear_3450_3829" x1="63.3125" y1="257.504" x2="63.3125" y2="282.684" gradientUnits="userSpaceOnUse">
<stop stop-color="#F8F8F8"/>
<stop offset="1" stop-color="#E2E7F2"/>
</linearGradient>
<linearGradient id="paint8_linear_3450_3829" x1="286.047" y1="292.82" x2="286.047" y2="312.715" gradientUnits="userSpaceOnUse">
<stop stop-color="#F8F8F8"/>
<stop offset="1" stop-color="#E2E7F2"/>
</linearGradient>
<linearGradient id="paint9_linear_3450_3829" x1="78.1621" y1="81.7188" x2="78.1621" y2="112.559" gradientUnits="userSpaceOnUse">
<stop stop-color="#012969" stop-opacity="0.6"/>
<stop offset="1" stop-color="white"/>
</linearGradient>
<linearGradient id="paint10_linear_3450_3829" x1="212.076" y1="84.3613" x2="272.822" y2="84.3613" gradientUnits="userSpaceOnUse">
<stop stop-color="#335A9A"/>
<stop offset="1" stop-color="#012969"/>
</linearGradient>
<clipPath id="clip0_3450_3829">
<rect width="400" height="400" fill="white"/>
</clipPath>
</defs>
</svg>
