<svg width="24" height="24" viewBox="0 0 24 24" fill="none" xmlns="http://www.w3.org/2000/svg">
<path d="M21.7147 8.33543V18.2857C21.7147 18.7404 21.5341 19.1764 21.2126 19.4979C20.8911 19.8194 20.4551 20 20.0004 20H4.00042C3.54577 20 3.10973 19.8194 2.78824 19.4979C2.46675 19.1764 2.28614 18.7404 2.28614 18.2857V8.33543L9.41357 14.3783C10.1362 14.991 11.0529 15.3274 12.0004 15.3274C12.9479 15.3274 13.8646 14.991 14.5873 14.3783L21.7147 8.33543ZM20.0004 4C20.2093 4.00023 20.4164 4.03817 20.6119 4.112C20.8928 4.21899 21.1404 4.3984 21.3296 4.632C21.4321 4.75763 21.5163 4.8971 21.5799 5.04629C21.6541 5.22229 21.6999 5.41314 21.7113 5.61371L21.7147 5.71429V6.28572L13.113 13.6229C12.817 13.8754 12.4438 14.0197 12.0549 14.032C11.666 14.0444 11.2845 13.9241 10.973 13.6909L10.8879 13.6223L2.28614 6.28572V5.71429C2.28544 5.39698 2.37312 5.08574 2.53934 4.81546C2.70557 4.54518 2.94378 4.32652 3.22728 4.184C3.46697 4.06281 3.73184 3.99978 4.00042 4H20.0004Z" fill="white"/>
</svg>
