<svg width="24" height="24" viewBox="0 0 24 24" fill="none" xmlns="http://www.w3.org/2000/svg">
<path d="M12.0004 7.19316C9.34023 7.19316 7.19336 9.34004 7.19336 12.0002C7.19336 14.6604 9.34023 16.8072 12.0004 16.8072C14.6605 16.8072 16.8074 14.6604 16.8074 12.0002C16.8074 9.34004 14.6605 7.19316 12.0004 7.19316ZM12.0004 15.1244C10.2801 15.1244 8.87617 13.7205 8.87617 12.0002C8.87617 10.2799 10.2801 8.87598 12.0004 8.87598C13.7207 8.87598 15.1246 10.2799 15.1246 12.0002C15.1246 13.7205 13.7207 15.1244 12.0004 15.1244ZM17.0043 5.87598C16.3832 5.87598 15.8816 6.37754 15.8816 6.99863C15.8816 7.61973 16.3832 8.12129 17.0043 8.12129C17.6254 8.12129 18.127 7.62207 18.127 6.99863C18.1246 6.3752 17.6254 5.87598 17.0043 5.87598Z" fill="white"/>
<path d="M21.3704 11.9995C21.3704 10.7058 21.3821 9.42374 21.3095 8.13234C21.2368 6.63234 20.8946 5.30109 19.7978 4.20421C18.6985 3.10499 17.3696 2.76515 15.8696 2.69249C14.5759 2.61984 13.2939 2.63156 12.0025 2.63156C10.7087 2.63156 9.42667 2.61984 8.13527 2.69249C6.63527 2.76515 5.30402 3.10734 4.20714 4.20421C3.10792 5.30343 2.76808 6.63234 2.69542 8.13234C2.62277 9.42609 2.63449 10.7081 2.63449 11.9995C2.63449 13.2909 2.62277 14.5753 2.69542 15.8667C2.76808 17.3667 3.11027 18.698 4.20714 19.7948C5.30636 20.8941 6.63527 21.2339 8.13527 21.3066C9.42902 21.3792 10.711 21.3675 12.0025 21.3675C13.2962 21.3675 14.5782 21.3792 15.8696 21.3066C17.3696 21.2339 18.7009 20.8917 19.7978 19.7948C20.897 18.6956 21.2368 17.3667 21.3095 15.8667C21.3845 14.5753 21.3704 13.2933 21.3704 11.9995ZM19.3079 17.5261C19.1368 17.9527 18.9306 18.2714 18.6001 18.5995C18.2696 18.93 17.9532 19.1362 17.5267 19.3073C16.2939 19.7972 13.3665 19.687 12.0001 19.687C10.6337 19.687 7.70402 19.7972 6.47121 19.3097C6.04464 19.1386 5.72589 18.9323 5.39777 18.6019C5.0673 18.2714 4.86105 17.955 4.68996 17.5284C4.20246 16.2933 4.31261 13.3659 4.31261 11.9995C4.31261 10.6331 4.20246 7.70343 4.68996 6.47062C4.86105 6.04406 5.0673 5.72531 5.39777 5.39718C5.72824 5.06906 6.04464 4.86046 6.47121 4.68937C7.70402 4.20187 10.6337 4.31203 12.0001 4.31203C13.3665 4.31203 16.2962 4.20187 17.529 4.68937C17.9556 4.86046 18.2743 5.06671 18.6025 5.39718C18.9329 5.72765 19.1392 6.04406 19.3103 6.47062C19.7978 7.70343 19.6876 10.6331 19.6876 11.9995C19.6876 13.3659 19.7978 16.2933 19.3079 17.5261Z" fill="white"/>
</svg>
