<svg width="24" height="24" viewBox="0 0 24 24" fill="none" xmlns="http://www.w3.org/2000/svg">
<path d="M18.3459 5.61563C16.6618 3.92813 14.4225 3 12.0352 3C7.12009 3 3.11959 7.0005 3.11959 11.919C3.11959 13.4906 3.53077 15.0268 4.31152 16.3768L3.0459 21L7.77427 19.7591C9.0817 20.4711 10.5465 20.8445 12.0352 20.8453H12.0386C16.9537 20.8453 20.9576 16.8443 20.9576 11.9263C20.9576 9.54244 20.0295 7.30312 18.3453 5.61563H18.3459ZM12.0391 19.3406C10.7106 19.341 9.40634 18.9841 8.26309 18.3073L7.99252 18.1453L5.18734 18.8799L5.93602 16.1445L5.75996 15.8632C5.01508 14.6828 4.62121 13.3148 4.62427 11.919C4.62427 7.83019 7.94977 4.50469 12.0425 4.50469C14.022 4.50469 15.885 5.27813 17.2845 6.67706C17.9746 7.36471 18.5216 8.18232 18.8939 9.08264C19.2662 9.98295 19.4564 10.9481 19.4535 11.9224C19.4501 16.0146 16.124 19.3406 12.0391 19.3406ZM16.1032 13.7859C15.8816 13.6734 14.7847 13.1357 14.5811 13.0614C14.3775 12.9872 14.2295 12.9489 14.0782 13.1739C13.9308 13.3956 13.5016 13.8984 13.3717 14.0492C13.2418 14.1966 13.1118 14.2179 12.8902 14.1054C12.6686 13.9929 11.948 13.7572 11.097 12.9979C10.436 12.4073 9.98602 11.676 9.85609 11.4544C9.72615 11.2327 9.84202 11.1096 9.95452 11.001C10.0563 10.9026 10.1761 10.7406 10.2886 10.6106C10.4011 10.4807 10.436 10.389 10.5103 10.2382C10.584 10.0909 10.5491 9.96037 10.4928 9.84787C10.4366 9.73537 9.98996 8.6385 9.80715 8.19187C9.62771 7.75594 9.44152 7.81556 9.30427 7.80881C9.17434 7.80206 9.0264 7.80206 8.87902 7.80206C8.73165 7.80206 8.48865 7.85831 8.28502 8.07994C8.08084 8.30156 7.50484 8.84269 7.50484 9.93956C7.50484 11.0364 8.30302 12.0945 8.41552 12.2458C8.52802 12.3932 9.98715 14.6471 12.2231 15.6101C12.7541 15.8385 13.1686 15.9757 13.4921 16.0809C14.0265 16.2497 14.5119 16.2249 14.895 16.1687C15.3236 16.1051 16.2135 15.6309 16.3996 15.1106C16.5858 14.5903 16.5858 14.1437 16.5296 14.0526C16.4767 13.9541 16.3293 13.8979 16.1043 13.7854L16.1032 13.7859Z" fill="white"/>
</svg>
