<svg width="24" height="24" viewBox="0 0 24 24" fill="none" xmlns="http://www.w3.org/2000/svg">
<path d="M23.0629 6.29286C22.7967 5.27586 22.0174 4.47486 21.0289 4.20111C19.2229 3.69336 11.9997 3.69336 11.9997 3.69336C11.9997 3.69336 4.77644 3.69336 2.97044 4.18236C2.00069 4.45611 1.20269 5.27661 0.936437 6.29361C0.460937 8.15061 0.460938 12.0011 0.460938 12.0011C0.460938 12.0011 0.460937 15.8711 0.936437 17.7086C1.20269 18.7249 1.98194 19.5266 2.97044 19.8004C4.79519 20.3089 11.9997 20.3089 11.9997 20.3089C11.9997 20.3089 19.2229 20.3089 21.0289 19.8199C22.0174 19.5461 22.7967 18.7451 23.0629 17.7281C23.5384 15.8711 23.5384 12.0206 23.5384 12.0206C23.5384 12.0206 23.5572 8.14986 23.0629 6.29361V6.29286ZM9.69944 15.5576V8.44236L15.7062 11.9996L9.69944 15.5569V15.5576Z" fill="white"/>
</svg>
