<svg width="24" height="24" viewBox="0 0 24 24" fill="none" xmlns="http://www.w3.org/2000/svg">
<path d="M20.7117 13.5609C20.8078 13.0336 20.8594 12.4945 20.8594 11.9555C20.8594 10.7602 20.625 9.6 20.1633 8.51016C19.718 7.45547 19.0781 6.50859 18.2648 5.69531C17.4516 4.88203 16.5047 4.24453 15.45 3.79922C14.3578 3.3375 13.2 3.10312 12.0047 3.10312C11.4422 3.10312 10.8773 3.15703 10.3289 3.2625C9.57187 2.86172 8.72344 2.64844 7.86562 2.64844C6.46641 2.64844 5.14922 3.19453 4.16016 4.18359C3.17109 5.17266 2.625 6.48984 2.625 7.88906C2.625 8.77969 2.85469 9.65625 3.28359 10.4297C3.19688 10.9313 3.15 11.4445 3.15 11.9555C3.15 13.1508 3.38438 14.3109 3.84609 15.4008C4.29141 16.4555 4.92891 17.4023 5.74219 18.2156C6.55547 19.0289 7.50234 19.6664 8.55703 20.1117C9.64922 20.5734 10.807 20.8078 12.0023 20.8078C12.5227 20.8078 13.043 20.7609 13.5539 20.6695C14.3391 21.1125 15.225 21.3492 16.132 21.3492C17.5312 21.3492 18.8484 20.8055 19.8375 19.8141C20.8289 18.825 21.3727 17.5078 21.3727 16.1086C21.375 15.218 21.1453 14.3391 20.7117 13.5609ZM12.0398 17.3789C8.89453 17.3789 7.48828 15.832 7.48828 14.6742C7.48828 14.0789 7.92656 13.6641 8.53125 13.6641C9.87656 13.6641 9.52969 15.5977 12.0398 15.5977C13.3266 15.5977 14.0367 14.8992 14.0367 14.1844C14.0367 13.7555 13.8258 13.2773 12.9773 13.0688L10.1789 12.3703C7.92656 11.8055 7.51641 10.5867 7.51641 9.44297C7.51641 7.06641 9.75469 6.17344 11.857 6.17344C13.793 6.17344 16.0758 7.24453 16.0758 8.66953C16.0758 9.28125 15.5461 9.63516 14.9414 9.63516C13.793 9.63516 14.0039 8.04609 11.6906 8.04609C10.5422 8.04609 9.90703 8.56641 9.90703 9.30938C9.90703 10.0523 10.8141 10.2891 11.6016 10.4695L13.6734 10.9289C15.9422 11.4352 16.5164 12.7594 16.5164 14.0063C16.5164 15.9352 15.0328 17.3789 12.0398 17.3789Z" fill="white"/>
</svg>
