<svg width="32" height="32" viewBox="0 0 32 32" fill="none" xmlns="http://www.w3.org/2000/svg">
<path d="M27.8591 28.3062L23.1432 27.5367C22.8741 27.4929 22.5985 27.5152 22.34 27.6017C22.0815 27.6881 21.8479 27.8361 21.6593 28.0329L18.3514 31.4785C18.1336 31.7053 17.8566 31.8664 17.5518 31.9436C17.247 32.0208 16.9266 32.011 16.6271 31.9154C16.3276 31.8197 16.0609 31.6419 15.8574 31.4023C15.6538 31.1626 15.5215 30.8707 15.4755 30.5597L14.7496 25.8369C14.7094 25.5685 14.6048 25.3138 14.4448 25.0946C14.2848 24.8754 14.0741 24.6981 13.8308 24.5781L9.51451 22.513C9.23186 22.3765 8.99305 22.1637 8.82508 21.8986C8.65711 21.6335 8.5667 21.3266 8.56407 21.0128C8.56144 20.6989 8.6467 20.3906 8.8102 20.1227C8.9737 19.8548 9.20892 19.638 9.48924 19.4969L13.7572 17.3468C14.0024 17.2254 14.2142 17.046 14.3743 16.8243C14.5344 16.6025 14.638 16.3451 14.6761 16.0742L15.3262 11.3399C15.3688 11.0291 15.4974 10.7364 15.6977 10.495C15.8979 10.2535 16.1617 10.0728 16.4592 9.97344C16.7567 9.87403 17.0761 9.85982 17.3812 9.93243C17.6864 10.005 17.9652 10.1615 18.186 10.3843L21.5444 13.784C21.7364 13.9777 21.9727 14.1218 22.2328 14.2038C22.4929 14.2859 22.7691 14.3034 23.0375 14.2549L27.742 13.4096C28.0508 13.3541 28.369 13.3861 28.6605 13.502C28.9521 13.618 29.2054 13.8131 29.3918 14.0655C29.5782 14.3179 29.6903 14.6174 29.7154 14.9302C29.7405 15.2429 29.6775 15.5564 29.5337 15.8353L27.3446 20.0826C27.2196 20.3248 27.1553 20.5937 27.1573 20.8662C27.1593 21.1387 27.2275 21.4067 27.3561 21.647L29.6141 25.8598C29.7604 26.1363 29.8267 26.4481 29.8056 26.7602C29.7844 27.0723 29.6766 27.3723 29.4942 27.6265C29.3119 27.8807 29.0622 28.079 28.7734 28.1991C28.4845 28.3191 28.1679 28.3563 27.8591 28.3062ZM29.1432 8.29393L27.1815 7.75641C27.0697 7.72581 26.9521 7.72278 26.8389 7.74759C26.7257 7.77239 26.6202 7.82429 26.5314 7.89883L24.9763 9.21047C24.874 9.29615 24.7498 9.35159 24.6178 9.37053C24.4857 9.38948 24.351 9.37118 24.2287 9.31771C24.1065 9.26423 24.0016 9.1777 23.9259 9.06784C23.8502 8.95799 23.8066 8.82918 23.8002 8.69592L23.706 6.66299C23.7004 6.54708 23.6667 6.43427 23.6079 6.33423C23.5491 6.2342 23.4669 6.14995 23.3683 6.08872L21.6409 5.01367C21.5278 4.94301 21.4367 4.84221 21.3778 4.72261C21.3189 4.60302 21.2946 4.46936 21.3074 4.33667C21.3203 4.20398 21.37 4.07752 21.4508 3.97149C21.5316 3.86547 21.6404 3.78408 21.7649 3.73649L23.6692 3.0175C23.778 2.97658 23.8752 2.90983 23.9524 2.82299C24.0297 2.73615 24.0846 2.63183 24.1126 2.51903L24.5995 0.543523C24.6318 0.413982 24.6996 0.296025 24.7953 0.202945C24.891 0.109865 25.0108 0.0453626 25.1412 0.0167066C25.2715 -0.0119493 25.4073 -0.00361956 25.5332 0.0407572C25.6591 0.085134 25.7702 0.163794 25.8538 0.267872L27.1264 1.85746C27.199 1.94806 27.2926 2.01964 27.399 2.06606C27.5054 2.11247 27.6216 2.13233 27.7374 2.12393L29.7657 1.97691C29.8988 1.96755 30.0319 1.99555 30.15 2.05775C30.2681 2.11995 30.3665 2.21388 30.434 2.32897C30.5016 2.44405 30.5357 2.57572 30.5325 2.70914C30.5292 2.84255 30.4888 2.97242 30.4158 3.08411L29.2971 4.78397C29.2334 4.88112 29.1942 4.99231 29.183 5.10796C29.1718 5.22361 29.1889 5.34025 29.2328 5.44783L30 7.33145C30.0511 7.45571 30.0662 7.59183 30.0437 7.72428C30.0211 7.85673 29.9618 7.98017 29.8725 8.08052C29.7831 8.18088 29.6674 8.2541 29.5384 8.29183C29.4095 8.32956 29.2725 8.33029 29.1432 8.29393ZM7.36672 16.4096L5.87361 15.9111C5.78829 15.8824 5.69725 15.8749 5.60839 15.8893C5.51953 15.9037 5.43552 15.9396 5.36365 15.9938L4.10714 16.9425C4.02455 17.0047 3.92619 17.0426 3.8232 17.0517C3.7202 17.0609 3.6167 17.0411 3.52441 16.9945C3.43211 16.9478 3.35472 16.8763 3.301 16.7879C3.24728 16.6996 3.21938 16.598 3.22046 16.4946L3.23194 14.9211C3.23362 14.8316 3.2136 14.7431 3.1736 14.6631C3.13359 14.5831 3.07479 14.514 3.00223 14.4616L1.70437 13.5543C1.61926 13.4951 1.55247 13.4132 1.51161 13.3179C1.47075 13.2227 1.45746 13.1178 1.47326 13.0154C1.48906 12.9129 1.53331 12.817 1.60098 12.7384C1.66864 12.6599 1.75699 12.6019 1.85598 12.5711L3.35828 12.0956C3.44384 12.0687 3.52158 12.0214 3.5848 11.9578C3.64803 11.8941 3.69484 11.8161 3.72123 11.7304L4.18064 10.2235C4.21061 10.1244 4.26776 10.0357 4.34559 9.9675C4.42343 9.89926 4.51883 9.85422 4.62097 9.83747C4.72312 9.82073 4.82791 9.83295 4.92346 9.87276C5.019 9.91258 5.10147 9.97838 5.16151 10.0627L6.08034 11.3445C6.13267 11.417 6.20179 11.4758 6.2818 11.5158C6.36181 11.5558 6.45033 11.5759 6.53976 11.5742L8.11328 11.5466C8.21687 11.544 8.31911 11.5705 8.40837 11.6232C8.49764 11.6758 8.57034 11.7524 8.61821 11.8443C8.66607 11.9362 8.68719 12.0397 8.67914 12.143C8.67109 12.2463 8.63421 12.3453 8.5727 12.4287L7.63778 13.6944C7.58434 13.7667 7.5493 13.8509 7.53569 13.9397C7.52208 14.0286 7.53032 14.1194 7.55968 14.2044L8.07193 15.6929C8.10934 15.7918 8.11761 15.8994 8.09577 16.0029C8.07394 16.1064 8.0229 16.2015 7.9487 16.2769C7.87451 16.3523 7.78026 16.4049 7.67712 16.4284C7.57398 16.4519 7.46626 16.4454 7.36672 16.4096Z" fill="#3F6AFF"/>
</svg>
