<svg width="32" height="32" viewBox="0 0 32 32" fill="none" xmlns="http://www.w3.org/2000/svg">
<rect width="32" height="32" rx="16" fill="white"/>
<path d="M23.9857 17.4309C24.0738 16.9475 24.1211 16.4533 24.1211 15.9592C24.1211 14.8635 23.9062 13.8 23.483 12.801C23.0748 11.8342 22.4883 10.9662 21.7428 10.2207C20.9973 9.4752 20.1293 8.89082 19.1625 8.48262C18.1613 8.05938 17.1 7.84453 16.0043 7.84453C15.4887 7.84453 14.9709 7.89395 14.4682 7.99062C13.7742 7.62324 12.9965 7.42773 12.2102 7.42773C10.9275 7.42773 9.72012 7.92832 8.81348 8.83496C7.90684 9.7416 7.40625 10.949 7.40625 12.2316C7.40625 13.048 7.6168 13.8516 8.00996 14.5605C7.93047 15.0203 7.8875 15.4908 7.8875 15.9592C7.8875 17.0549 8.10234 18.1184 8.52559 19.1174C8.93379 20.0842 9.51816 20.9521 10.2637 21.6977C11.0092 22.4432 11.8771 23.0275 12.8439 23.4357C13.8451 23.859 14.9064 24.0738 16.0021 24.0738C16.4791 24.0738 16.9561 24.0309 17.4244 23.9471C18.1441 24.3531 18.9563 24.5701 19.7877 24.5701C21.0703 24.5701 22.2777 24.0717 23.1844 23.1629C24.0932 22.2563 24.5916 21.0488 24.5916 19.7662C24.5938 18.9498 24.3832 18.1441 23.9857 17.4309ZM16.0365 20.9307C13.1533 20.9307 11.8643 19.5127 11.8643 18.4514C11.8643 17.9057 12.266 17.5254 12.8203 17.5254C14.0535 17.5254 13.7355 19.2979 16.0365 19.2979C17.216 19.2979 17.867 18.6576 17.867 18.0023C17.867 17.6092 17.6736 17.1709 16.8959 16.9797L14.3307 16.3395C12.266 15.8217 11.89 14.7045 11.89 13.6561C11.89 11.4775 13.9418 10.659 15.8689 10.659C17.6436 10.659 19.7361 11.6408 19.7361 12.9471C19.7361 13.5078 19.2506 13.8322 18.6963 13.8322C17.6436 13.8322 17.8369 12.3756 15.7164 12.3756C14.6637 12.3756 14.0814 12.8525 14.0814 13.5336C14.0814 14.2146 14.9129 14.4316 15.6348 14.5971L17.534 15.0182C19.6137 15.4822 20.14 16.6961 20.14 17.8391C20.14 19.6072 18.7801 20.9307 16.0365 20.9307Z" fill="#2D43A8"/>
</svg>
