<svg width="32" height="32" viewBox="0 0 32 32" fill="none" xmlns="http://www.w3.org/2000/svg">
<rect width="32" height="32" rx="16" fill="white"/>
<path d="M24.6286 11.549C24.4209 10.7558 23.8131 10.131 23.0421 9.91752C21.6334 9.52148 15.9995 9.52148 15.9995 9.52148C15.9995 9.52148 10.3655 9.52148 8.95686 9.90289C8.20048 10.1164 7.57806 10.7564 7.37039 11.5496C6.99951 12.998 6.99951 16.0013 6.99951 16.0013C6.99951 16.0013 6.99951 19.0199 7.37039 20.4531C7.57806 21.2457 8.18586 21.8711 8.95686 22.0846C10.3801 22.4812 15.9995 22.4812 15.9995 22.4812C15.9995 22.4812 21.6334 22.4812 23.0421 22.0998C23.8131 21.8863 24.4209 21.2615 24.6286 20.4683C24.9994 19.0199 24.9994 16.0166 24.9994 16.0166C24.9994 16.0166 25.0141 12.9975 24.6286 11.5496V11.549ZM14.2053 18.7753V13.2256L18.8905 16.0002L14.2053 18.7747V18.7753Z" fill="#2D43A8"/>
</svg>
