<svg width="32" height="32" viewBox="0 0 32 32" fill="none" xmlns="http://www.w3.org/2000/svg">
<rect width="32" height="32" rx="16" fill="white"/>
<path d="M23.9995 12.982V21.1763C23.9995 21.5507 23.8508 21.9098 23.586 22.1746C23.3213 22.4394 22.9622 22.5881 22.5877 22.5881H9.41128C9.03686 22.5881 8.67777 22.4394 8.41301 22.1746C8.14825 21.9098 7.99952 21.5507 7.99952 21.1763V12.982L13.8692 17.9584C14.4643 18.4631 15.2192 18.74 15.9995 18.74C16.7798 18.74 17.5347 18.4631 18.1299 17.9584L23.9995 12.982ZM22.5877 9.41162C22.7598 9.41181 22.9304 9.44306 23.0913 9.50386C23.3226 9.59197 23.5265 9.73971 23.6823 9.93209C23.7668 10.0356 23.8361 10.1504 23.8885 10.2733C23.9496 10.4182 23.9873 10.5754 23.9967 10.7406L23.9995 10.8234V11.294L16.9157 17.3363C16.672 17.5443 16.3647 17.6631 16.0444 17.6733C15.7241 17.6835 15.4099 17.5844 15.1534 17.3923L15.0833 17.3359L7.99952 11.294V10.8234C7.99894 10.5621 8.07114 10.3058 8.20804 10.0832C8.34493 9.86059 8.5411 9.68052 8.77457 9.56315C8.97197 9.46335 9.19009 9.41144 9.41128 9.41162H22.5877Z" fill="#2D43A8"/>
</svg>
