<svg width="32" height="32" viewBox="0 0 32 32" fill="none" xmlns="http://www.w3.org/2000/svg">
<rect width="32" height="32" rx="16" fill="white"/>
<path d="M16.0004 11.5927C13.562 11.5927 11.594 13.5606 11.594 15.9991C11.594 18.4376 13.562 20.4056 16.0004 20.4056C18.4389 20.4056 20.4069 18.4376 20.4069 15.9991C20.4069 13.5606 18.4389 11.5927 16.0004 11.5927ZM16.0004 18.863C14.4235 18.863 13.1366 17.5761 13.1366 15.9991C13.1366 14.4222 14.4235 13.1353 16.0004 13.1353C17.5774 13.1353 18.8643 14.4222 18.8643 15.9991C18.8643 17.5761 17.5774 18.863 16.0004 18.863ZM20.5874 10.3853C20.018 10.3853 19.5583 10.845 19.5583 11.4144C19.5583 11.9837 20.018 12.4435 20.5874 12.4435C21.1567 12.4435 21.6165 11.9858 21.6165 11.4144C21.6143 10.8429 21.1567 10.3853 20.5874 10.3853Z" fill="#2D43A8"/>
<path d="M24.5886 15.9996C24.5886 14.8136 24.5993 13.6384 24.5327 12.4546C24.4661 11.0796 24.1524 9.85933 23.147 8.85386C22.1394 7.84624 20.9212 7.53472 19.5462 7.46812C18.3603 7.40152 17.1851 7.41226 16.0013 7.41226C14.8153 7.41226 13.6401 7.40152 12.4564 7.46812C11.0814 7.53472 9.86104 7.84839 8.85557 8.85386C7.84795 9.86148 7.53643 11.0796 7.46983 12.4546C7.40323 13.6406 7.41397 14.8158 7.41397 15.9996C7.41397 17.1834 7.40323 18.3607 7.46983 19.5445C7.53643 20.9195 7.8501 22.1398 8.85557 23.1453C9.86319 24.1529 11.0814 24.4644 12.4564 24.531C13.6423 24.5976 14.8175 24.5869 16.0013 24.5869C17.1872 24.5869 18.3624 24.5976 19.5462 24.531C20.9212 24.4644 22.1415 24.1507 23.147 23.1453C24.1546 22.1377 24.4661 20.9195 24.5327 19.5445C24.6015 18.3607 24.5886 17.1855 24.5886 15.9996ZM22.698 21.0656C22.5411 21.4566 22.3521 21.7488 22.0491 22.0496C21.7462 22.3525 21.4562 22.5416 21.0651 22.6984C19.9351 23.1474 17.2517 23.0464 15.9991 23.0464C14.7466 23.0464 12.061 23.1474 10.931 22.7005C10.5399 22.5437 10.2478 22.3546 9.94698 22.0517C9.64405 21.7488 9.45498 21.4587 9.29815 21.0677C8.85127 19.9355 8.95225 17.2521 8.95225 15.9996C8.95225 14.747 8.85127 12.0615 9.29815 10.9314C9.45498 10.5404 9.64405 10.2482 9.94698 9.94742C10.2499 9.64664 10.5399 9.45542 10.931 9.29859C12.061 8.85171 14.7466 8.95269 15.9991 8.95269C17.2517 8.95269 19.9372 8.85171 21.0673 9.29859C21.4583 9.45542 21.7505 9.64449 22.0513 9.94742C22.3542 10.2503 22.5433 10.5404 22.7001 10.9314C23.147 12.0615 23.046 14.747 23.046 15.9996C23.046 17.2521 23.147 19.9355 22.698 21.0656Z" fill="#2D43A8"/>
</svg>
