<svg width="32" height="32" viewBox="0 0 32 32" fill="none" xmlns="http://www.w3.org/2000/svg">
<rect width="32" height="32" rx="16" fill="white"/>
<path d="M21.818 10.1477C20.2742 8.60078 18.2215 7.75 16.0332 7.75C11.5276 7.75 7.86052 11.4171 7.86052 15.9257C7.86052 17.3664 8.23744 18.7746 8.95312 20.0121L7.79297 24.25L12.1273 23.1125C13.3258 23.7652 14.6685 24.1074 16.0332 24.1082H16.0363C20.5418 24.1082 24.212 20.4406 24.212 15.9325C24.212 13.7472 23.3612 11.6945 21.8175 10.1477H21.818ZM16.0368 22.7289C14.8189 22.7293 13.6234 22.4021 12.5754 21.7817L12.3274 21.6332L9.75595 22.3066L10.4423 19.7991L10.2809 19.5413C9.59805 18.4592 9.237 17.2053 9.23981 15.9257C9.23981 12.1777 12.2882 9.1293 16.0399 9.1293C17.8544 9.1293 19.5621 9.83828 20.845 11.1206C21.4776 11.751 21.9791 12.5005 22.3203 13.3258C22.6616 14.151 22.8359 15.0358 22.8332 15.9288C22.8301 19.68 19.7812 22.7289 16.0368 22.7289ZM19.7622 17.6371C19.559 17.534 18.5535 17.041 18.3669 16.973C18.1802 16.9049 18.0446 16.8699 17.9059 17.0761C17.7708 17.2793 17.3774 17.7402 17.2583 17.8784C17.1392 18.0135 17.0201 18.0331 16.8169 17.93C16.6138 17.8269 15.9532 17.6108 15.1731 16.9147C14.5672 16.3733 14.1547 15.703 14.0356 15.4998C13.9165 15.2967 14.0227 15.1838 14.1259 15.0842C14.2192 14.994 14.329 14.8455 14.4322 14.7264C14.5353 14.6073 14.5672 14.5233 14.6353 14.3851C14.7029 14.25 14.6709 14.1303 14.6193 14.0272C14.5678 13.9241 14.1584 12.9186 13.9908 12.5092C13.8263 12.1096 13.6556 12.1643 13.5298 12.1581C13.4107 12.1519 13.2751 12.1519 13.14 12.1519C13.0049 12.1519 12.7822 12.2035 12.5955 12.4066C12.4083 12.6098 11.8803 13.1058 11.8803 14.1113C11.8803 15.1167 12.612 16.0866 12.7151 16.2253C12.8182 16.3604 14.1558 18.4265 16.2054 19.3093C16.6921 19.5186 17.0722 19.6444 17.3686 19.7409C17.8585 19.8955 18.3035 19.8729 18.6546 19.8213C19.0475 19.763 19.8632 19.3284 20.0339 18.8514C20.2046 18.3745 20.2046 17.965 20.153 17.8815C20.1045 17.7913 19.9695 17.7397 19.7632 17.6366L19.7622 17.6371Z" fill="#2D43A8"/>
</svg>
