<svg width="62" height="62" viewBox="0 0 62 62" fill="none" xmlns="http://www.w3.org/2000/svg">
<path d="M19.205 61.7933C22.0673 62.7492 23.0231 60.1245 21.8296 59.1687C18.0115 56.544 16.105 51.77 17.5361 47.4765C18.9673 42.7077 22.7855 40.8167 22.7855 33.6402C22.7855 33.6402 27.5595 37.2207 26.6036 42.7077C31.3725 37.2 29.2231 30.0597 28.2725 26.722C40.44 33.1648 50.9386 47.2388 38.7711 59.1687C37.34 60.3622 38.7711 62.5063 40.9205 61.7933C74.0853 42.9453 49.0321 14.7767 44.7386 11.4493C46.1698 14.787 46.4075 20.0363 43.5451 22.661C38.5283 3.81817 26.3711 0 26.3711 0C27.8023 9.7805 20.8841 20.2792 14.4413 28.4167C14.1933 24.335 13.9711 21.7 12.0491 18.135C11.5686 25.0532 6.08162 30.7778 4.67112 37.9337C2.76462 47.4765 6.10229 54.3947 19.2256 61.7933H19.205Z" fill="url(#paint0_linear_1589_154)"/>
<defs>
<linearGradient id="paint0_linear_1589_154" x1="31.0103" y1="0" x2="31.0103" y2="61.9995" gradientUnits="userSpaceOnUse">
<stop stop-color="#FFB125"/>
<stop offset="1" stop-color="#FF420E"/>
</linearGradient>
</defs>
</svg>
