<svg width="54" height="54" viewBox="0 0 54 54" fill="none" xmlns="http://www.w3.org/2000/svg">
<rect width="54" height="54" rx="16" fill="#E8F0FE"/>
<path d="M27.2697 12.125C19.2042 12.125 12.6651 18.613 12.6651 26.617C12.6651 29.3549 13.4309 31.9155 14.7609 34.1001L12.125 41.875L20.2109 39.3063C22.3032 40.4541 24.7096 41.1089 27.2697 41.1089C35.3363 41.1089 41.875 34.6201 41.875 26.617C41.875 18.613 35.3363 12.125 27.2697 12.125ZM34.5321 32.1206C34.1885 32.9724 32.6346 33.7497 31.9489 33.7855C31.264 33.8218 31.2445 34.3164 27.5103 32.6942C23.7766 31.0716 21.5303 27.1264 21.3532 26.8724C21.176 26.6192 19.9069 24.8107 19.9753 22.9906C20.0443 21.1702 21.041 20.3114 21.3967 19.9542C21.752 19.5964 22.1594 19.5324 22.4082 19.5283C22.7023 19.5235 22.8927 19.5195 23.1103 19.5276C23.3277 19.5358 23.6543 19.4821 23.9371 20.2341C24.2197 20.986 24.8962 22.8341 24.9827 23.0224C25.0692 23.2109 25.1227 23.4292 24.9895 23.6713C24.8559 23.9138 24.7875 24.0654 24.5936 24.2744C24.3987 24.4835 24.1836 24.7421 24.0098 24.9019C23.8159 25.0789 23.6133 25.2719 23.8172 25.6502C24.0209 26.0283 24.7239 27.2676 25.7947 28.2889C27.171 29.6019 28.3579 30.0374 28.7231 30.2358C29.0893 30.4353 29.3079 30.4131 29.535 30.1741C29.761 29.9351 30.5071 29.1285 30.7699 28.7683C31.0325 28.4072 31.2786 28.4779 31.616 28.6137C31.9532 28.7499 33.7515 29.7131 34.1178 29.912C34.4837 30.1105 34.7282 30.2127 34.8157 30.3702C34.9031 30.5282 34.8755 31.2687 34.5321 32.1206Z" fill="#C00A2F"/>
<path d="M34.532 32.121C34.1885 32.9728 32.6345 33.7502 31.9489 33.786C31.264 33.8223 31.2445 34.3168 27.5103 32.6947C23.7766 31.0721 21.5303 27.1269 21.3532 26.8728C21.176 26.6197 19.9069 24.8111 19.9753 22.9911C20.0443 21.1707 21.0409 20.3118 21.3967 19.9546C21.752 19.5969 22.1594 19.5328 22.4082 19.5288C22.7022 19.524 22.8927 19.52 23.1103 19.528C23.3277 19.5363 23.6543 19.4825 23.9371 20.2345C24.2197 20.9864 24.8962 22.8345 24.9827 23.0229C25.0692 23.2114 25.1227 23.4297 24.9895 23.6717C24.8559 23.9143 24.7875 24.0658 24.5936 24.2749C24.3987 24.4839 24.1836 24.7425 24.0098 24.9024C23.8159 25.0793 23.6133 25.2724 23.8172 25.6507C24.0209 26.0287 24.7238 27.2681 25.7947 28.2894C27.171 29.6023 28.3579 30.0378 28.7231 30.2362C29.0893 30.4357 29.3079 30.4135 29.535 30.1745C29.761 29.9356 30.5071 29.1289 30.7699 28.7688C31.0325 28.4077 31.2786 28.4784 31.616 28.6141C31.9532 28.7504 33.7514 29.7136 34.1177 29.9124C34.4836 30.1109 34.7282 30.2132 34.8157 30.3706C34.9031 30.5287 34.8755 31.2692 34.532 32.121Z" fill="#F3ECE3"/>
</svg>
