<svg width="54" height="54" viewBox="0 0 54 54" fill="none" xmlns="http://www.w3.org/2000/svg">
<path d="M0 16C0 7.16344 7.16344 0 16 0H38C46.8366 0 54 7.16344 54 16V38C54 46.8366 46.8366 54 38 54H16C7.16344 54 0 46.8366 0 38V16Z" fill="#E8F0FE"/>
<g clip-path="url(#clip0_1589_879)">
<path d="M26.4174 10H27.7372C27.7555 10.034 27.7882 10.0218 27.8147 10.0231C28.5151 10.0537 29.2128 10.1293 29.9034 10.2495C31.0809 10.4518 32.2331 10.781 33.3397 11.2313C35.9138 12.2674 38.1905 13.9261 39.9656 16.0588C42.3553 18.8778 43.7574 22.401 43.9581 26.0911C43.9524 26.2851 43.9665 26.4792 44.0003 26.6704V27.9486C43.9656 27.9656 43.9772 27.9989 43.9758 28.0255C43.9549 28.3967 43.923 28.7668 43.8799 29.1358C43.7017 30.6953 43.3048 32.222 42.7009 33.6709C41.471 36.6596 39.4152 39.2362 36.774 41.099C34.7014 42.577 32.3195 43.5636 29.8089 43.984C29.6586 44.0098 29.6586 44.0098 29.6586 43.848V32.2213C29.6586 32.0357 29.6376 32.0608 29.8157 32.0608H33.5016C33.5696 32.0608 33.626 32.069 33.6376 31.9683C33.6974 31.54 33.7667 31.113 33.832 30.6853L34.3549 27.2551C34.378 27.1042 34.3773 27.1028 34.2236 27.1028H29.7905C29.6811 27.1028 29.6546 27.0756 29.6546 26.9668C29.6591 25.985 29.6591 25.0034 29.6546 24.0221C29.6497 23.7802 29.6656 23.5384 29.7022 23.2993C29.7399 22.9803 29.8441 22.6727 30.0081 22.3964C30.172 22.1202 30.3921 21.8813 30.654 21.6954C31.1372 21.3823 31.7035 21.2219 32.2791 21.2351C32.9971 21.2249 33.7151 21.2296 34.4331 21.2351C34.5446 21.2351 34.5792 21.2092 34.5786 21.0916C34.5738 19.9092 34.5786 18.7275 34.5786 17.5451V17.1066C34.5786 17.0386 34.5595 17.008 34.4915 16.9985C34.2665 16.9672 34.0428 16.9257 33.8171 16.8999C33.163 16.8264 32.5096 16.7489 31.8507 16.7149C31.2135 16.6682 30.5737 16.6698 29.9367 16.7197C29.3598 16.7699 28.7909 16.8891 28.2424 17.0746C27.214 17.4135 26.3109 18.0529 25.6498 18.9104C24.8018 20.0631 24.3474 21.4583 24.3539 22.8893C24.3206 24.2376 24.3444 25.5879 24.343 26.9369C24.343 27.1198 24.3641 27.1001 24.1866 27.1001H20.1751C20.0554 27.1001 20.0132 27.1205 20.0132 27.2544C20.0187 28.8083 20.0187 30.3621 20.0132 31.916C20.0132 32.0275 20.0377 32.0628 20.1553 32.0628C21.5002 32.0581 22.8451 32.0628 24.19 32.0567C24.3206 32.0567 24.343 32.0948 24.343 32.2165C24.3398 36.093 24.3398 39.9685 24.343 43.8432C24.343 44.0098 24.343 44.0112 24.1853 43.9846C23.6817 43.9013 23.1826 43.7938 22.6894 43.6623C19.2586 42.771 16.1992 40.8139 13.9517 38.0727C11.576 35.2405 10.196 31.7066 10.0238 28.0139C10.0238 27.9826 10.0354 27.9459 10 27.9228V26.1434C10.0254 26.0306 10.0343 25.9147 10.0265 25.7994C10.0891 25.2833 10.1326 24.7652 10.2223 24.2519C10.3209 23.6909 10.4454 23.1368 10.5895 22.5861C10.854 21.5984 11.209 20.6372 11.6502 19.7148C12.0278 18.919 12.4686 18.1548 12.9685 17.4295C13.4732 16.6895 14.0352 15.9902 14.6493 15.3381C15.1503 14.8068 15.6852 14.3085 16.2505 13.8463C16.9114 13.3058 17.6111 12.8147 18.344 12.377C19.1126 11.919 19.9155 11.5212 20.7455 11.1871C21.5119 10.8815 22.3007 10.6354 23.1049 10.4508C23.6094 10.3312 24.1198 10.2379 24.634 10.1713C25.0658 10.1176 25.4968 10.0626 25.9327 10.0435C26.0954 10.0485 26.2582 10.0339 26.4174 10Z" fill="#C00A2F"/>
</g>
<defs>
<clipPath id="clip0_1589_879">
<rect width="34" height="34" fill="white" transform="translate(10 10)"/>
</clipPath>
</defs>
</svg>
