<svg width="54" height="54" viewBox="0 0 54 54" fill="none" xmlns="http://www.w3.org/2000/svg">
<rect width="54" height="54" rx="16" fill="#E8F0FE"/>
<path d="M24.1667 32.667V22.7503L32.6667 27.7257L24.1667 32.667ZM43.66 20.8619C43.66 20.8619 43.3271 18.5032 42.3085 17.4633C41.0151 16.0991 39.5658 16.0934 38.9014 16.0141C34.1443 15.667 27.0071 15.667 27.0071 15.667H26.9929C26.9929 15.667 19.8558 15.667 15.0986 16.0141C14.4327 16.0934 12.9849 16.0991 11.6901 17.4633C10.6715 18.5032 10.34 20.8633 10.34 20.8633C10.34 20.8633 10 23.6315 10 26.4011V29.0007C10 31.7717 10.34 34.5427 10.34 34.5427C10.34 34.5427 10.6715 36.9014 11.6901 37.9412C12.9849 39.3055 14.6835 39.2616 15.44 39.4047C18.16 39.6696 27 39.7503 27 39.7503C27 39.7503 34.1443 39.739 38.9014 39.3933C39.5673 39.3126 41.0151 39.3069 42.3085 37.9427C43.3285 36.9028 43.66 34.5427 43.66 34.5427C43.66 34.5427 44 31.7731 44 29.0021V26.4039C44 23.6329 43.66 20.8619 43.66 20.8619Z" fill="#C00A2F"/>
<path d="M24.168 32.6657V22.749L32.668 27.7244L24.168 32.6657Z" fill="#F3ECE3"/>
</svg>
