<svg width="62" height="61" viewBox="0 0 62 61" fill="none" xmlns="http://www.w3.org/2000/svg">
<path d="M50.6501 4.75836L52.8347 0.269489C52.8696 0.189397 52.9271 0.121238 53.0002 0.0733682C53.0733 0.0254987 53.1588 0 53.2462 0C53.3335 0 53.419 0.0254987 53.4921 0.0733682C53.5652 0.121238 53.6227 0.189397 53.6576 0.269489L55.8721 4.75836C55.9038 4.82606 55.9519 4.88478 56.012 4.9292C56.0721 4.97362 56.1423 5.00233 56.2163 5.01273L61.1391 5.70102C61.2251 5.71027 61.3065 5.74415 61.3737 5.79857C61.4409 5.853 61.4909 5.92567 61.5177 6.00785C61.5446 6.09002 61.5472 6.17821 61.5251 6.26181C61.5031 6.3454 61.4574 6.42086 61.3935 6.4791L57.8473 9.96545C57.7931 10.0164 57.7525 10.08 57.729 10.1505C57.7055 10.221 57.6998 10.2962 57.7126 10.3695L58.5655 15.2623C58.5819 15.3463 58.5741 15.4331 58.5428 15.5128C58.5115 15.5924 58.4582 15.6614 58.389 15.7117C58.3198 15.762 58.2377 15.7915 58.1523 15.7967C58.067 15.8019 57.9819 15.7826 57.9071 15.7411L53.493 13.4518C53.4285 13.4177 53.3566 13.3999 53.2836 13.3999C53.2106 13.3999 53.1387 13.4177 53.0741 13.4518L48.69 15.6962C48.6152 15.7378 48.5301 15.757 48.4447 15.7518C48.3593 15.7466 48.2772 15.7171 48.2081 15.6668C48.1389 15.6165 48.0855 15.5475 48.0543 15.4679C48.023 15.3883 48.0151 15.3014 48.0316 15.2174L48.8545 10.3096C48.8673 10.2364 48.8617 10.1611 48.8382 10.0906C48.8147 10.0201 48.774 9.95653 48.7199 9.9056L45.1437 6.52398C45.0779 6.46299 45.0319 6.38367 45.0116 6.29626C44.9913 6.20885 44.9977 6.11737 45.0299 6.03362C45.0621 5.94987 45.1187 5.8777 45.1923 5.82641C45.266 5.77513 45.3533 5.74709 45.443 5.74591L50.3508 5.01273C50.4167 4.99578 50.4779 4.96408 50.5298 4.92001C50.5816 4.87595 50.6228 4.82067 50.6501 4.75836Z" fill="url(#paint0_linear_1589_847)"/>
<path d="M0.885327 27.4258H9.71344C10.9703 27.4258 11.5988 28.0542 11.5988 29.3111V58.414C11.5988 59.6709 10.9703 60.2993 9.71344 60.2993H0.885327C-0.371558 60.2993 -1 59.6709 -1 58.414V29.3111C-1 28.0542 -0.371558 27.4258 0.885327 27.4258Z" fill="url(#paint1_linear_1589_847)"/>
<path d="M31.0515 7.58787C29.5552 9.96698 29.5552 13.9022 28.3731 16.6704C27.2691 19.421 25.4892 21.8489 23.1981 23.7293C20.907 25.6098 18.1788 26.8821 15.2656 27.4287V60.3471H47.1067C48.1133 60.3351 49.0901 60.0041 49.8967 59.4019C50.7033 58.7996 51.2981 57.9571 51.5956 56.9954L57.9099 36.6458C58.2352 35.5855 58.3072 34.4636 58.1202 33.3703C57.9332 32.277 57.4924 31.2429 56.8332 30.3509C56.1741 29.4588 55.3149 28.7339 54.3247 28.2342C53.3345 27.7345 52.2409 27.474 51.1317 27.4736H35.4356C35.4356 27.4736 43.0218 17.3138 40.4931 9.71261C40.2362 8.6395 39.6619 7.66869 38.8452 6.92671C38.0285 6.18473 37.0072 5.70599 35.9144 5.55292C34.993 5.35408 34.0328 5.44257 33.1633 5.80644C32.2937 6.17031 31.5567 6.79207 31.0515 7.58787Z" fill="url(#paint2_linear_1589_847)"/>
<defs>
<linearGradient id="paint0_linear_1589_847" x1="58.8416" y1="0" x2="58.8416" y2="15.7976" gradientUnits="userSpaceOnUse">
<stop stop-color="#FF5925"/>
<stop offset="1" stop-color="#FF0D3C"/>
</linearGradient>
<linearGradient id="paint1_linear_1589_847" x1="9.54339" y1="27.4258" x2="9.54339" y2="60.2993" gradientUnits="userSpaceOnUse">
<stop stop-color="#FF5925"/>
<stop offset="1" stop-color="#FF0D3C"/>
</linearGradient>
<linearGradient id="paint2_linear_1589_847" x1="51.2138" y1="5.44922" x2="51.2138" y2="60.3471" gradientUnits="userSpaceOnUse">
<stop stop-color="#FF5925"/>
<stop offset="1" stop-color="#FF0D3C"/>
</linearGradient>
</defs>
</svg>
