<svg width="48" height="48" viewBox="0 0 48 48" fill="none" xmlns="http://www.w3.org/2000/svg">
<path d="M12.9258 15.0352C12.9258 8.17969 17.9355 2.90625 24 2.90625C29.8008 2.90625 35.0742 7.91602 35.0742 13.7168V15.0352H39.0293C41.666 15.0352 43.7754 17.4082 43.7754 20.0449V40.084C43.7754 42.9844 41.666 45.0938 39.0293 45.0938H8.9707C6.33398 45.0938 4.22461 42.7207 4.22461 40.084V20.0449C4.22461 17.1445 6.33398 15.0352 8.9707 15.0352H12.9258ZM15.5625 15.0352H32.4375V13.7168C32.4375 10.0254 29.0098 5.54297 24 5.54297C19.2539 5.54297 15.5625 9.76172 15.5625 15.0352ZM8.9707 17.6719C7.91602 17.6719 6.86133 18.7266 6.86133 20.0449V40.084C6.86133 41.4023 7.91602 42.457 8.9707 42.457H39.0293C40.084 42.457 41.1387 41.4023 41.1387 40.084V20.0449C41.1387 18.7266 40.084 17.6719 39.0293 17.6719H8.9707ZM24 36.1289C20.8359 36.1289 17.9355 33.4922 17.9355 30.3281C17.9355 27.1641 20.5723 24.5273 24 24.5273C27.1641 24.5273 30.0645 27.1641 30.0645 30.3281C30.0645 33.4922 27.1641 36.1289 24 36.1289ZM24 26.9004C22.1543 26.9004 20.5723 28.4824 20.5723 30.0645C20.5723 31.6465 22.1543 33.2285 24 33.2285C25.8457 33.2285 27.4277 31.6465 27.4277 30.0645C27.4277 28.4824 25.8457 26.9004 24 26.9004Z" fill="white"/>
</svg>
