<svg width="332" height="222" viewBox="0 0 332 222" fill="none" xmlns="http://www.w3.org/2000/svg">
<path opacity="0.2" d="M297.035 216.624C299.668 211.804 315.092 181.66 303.932 152.851C291.77 121.446 276.197 123.115 245.348 115.773C214.499 108.432 248.166 69.0557 240.268 37.6512C232.333 6.2466 197.257 -11.5876 157.324 8.50832C117.427 28.6043 132.407 85.7776 67.2973 97.939C4.33817 109.693 28.1796 210.098 29.8481 216.735C11.0494 217.291 0 217.921 0 218.663C0 220.517 74.3051 222 166 222C257.695 222 332 220.517 332 218.663C332 217.921 318.911 217.217 297.035 216.624Z" fill="url(#paint0_linear_294_5404)"/>
<path d="M46.0162 127.527C45.7566 125.487 44.1993 123.856 42.16 123.559L42.0117 123.522C44.051 123.263 45.6825 121.705 45.9791 119.666L46.0162 119.518L46.0533 119.666C46.4611 121.631 48.0184 123.189 50.0207 123.522L49.8723 123.559C47.8701 123.93 46.3499 125.524 46.0162 127.527ZM280.24 59.3783C279.981 57.3391 278.424 55.7077 276.384 55.4111L276.236 55.374C278.275 55.1144 279.907 53.5572 280.203 51.5179L280.24 51.3696L280.278 51.5179C280.685 53.483 282.243 55.0403 284.245 55.374L284.097 55.4111C282.094 55.7818 280.574 57.3762 280.24 59.3783ZM268.042 141.06C267.782 139.021 266.225 137.389 264.185 137.093L264.037 137.056C266.077 136.796 267.708 135.239 268.005 133.199L268.042 133.051L268.079 133.199C268.487 135.165 270.044 136.722 272.046 137.056L271.898 137.093C269.896 137.5 268.375 139.058 268.042 141.06Z" fill="white"/>
<path d="M307.122 105.911H304.008V105.132H307.085L307.122 105.911ZM300.93 105.911H297.853V105.132H300.93V105.911ZM294.701 105.911C293.552 105.836 292.514 105.317 291.735 104.465L292.329 103.908C292.959 104.613 293.849 105.021 294.776 105.095L294.701 105.911ZM310.2 104.724L309.644 104.131C310.348 103.5 310.756 102.611 310.83 101.684L311.609 101.758C311.535 102.87 311.016 103.908 310.2 104.724ZM291.327 101.424L290.957 101.387H290.512V98.3097H291.29L291.327 101.424ZM311.646 98.6063H310.867V95.5289H311.646V98.6063ZM291.327 95.1951H290.549V92.1177H291.327V95.1951ZM311.646 92.4143H310.867V89.3369H311.646V92.4143ZM291.327 89.0403L290.549 88.9662C290.623 87.8168 291.142 86.7786 291.995 86L292.551 86.5932C291.809 87.2606 291.402 88.1134 291.327 89.0403ZM309.829 86.7786C309.199 86.0741 308.309 85.6663 307.382 85.5921L307.456 84.8135C308.605 84.8876 309.644 85.4067 310.422 86.2595L309.829 86.7786ZM295.072 85.5921V85.1843L295.035 84.8135H295.072H298.15V85.5921H295.072ZM304.342 85.5921H301.264V84.8135H304.342V85.5921Z" fill="white"/>
<path d="M127.513 36.6869H124.399V35.9083H127.476L127.513 36.6869ZM121.321 36.6869H118.244V35.9083H121.321V36.6869ZM115.129 36.6869C113.98 36.6127 112.942 36.0936 112.163 35.2409L112.756 34.6847C113.387 35.3892 114.276 35.797 115.203 35.8712L115.129 36.6869ZM130.59 35.4633L130.034 34.8701C130.739 34.2398 131.147 33.3499 131.221 32.423L131.999 32.4971C131.962 33.6465 131.443 34.6847 130.59 35.4633ZM111.718 32.2005L111.347 32.1634H110.902V29.086H111.681L111.718 32.2005ZM132.074 29.3826H131.295V26.3052H132.074V29.3826ZM111.718 25.9715H110.939V22.8941H111.718V25.9715ZM132.074 23.1907H131.295V20.1133H132.074V23.1907ZM111.755 19.8167L110.977 19.7425C111.051 18.5931 111.57 17.5549 112.423 16.7763L112.979 17.3696C112.237 17.9999 111.829 18.8897 111.755 19.8167ZM130.257 17.5549C129.626 16.8505 128.737 16.4426 127.81 16.3685L127.884 15.5898C129.033 15.664 130.071 16.1831 130.85 17.0359L130.257 17.5549ZM115.463 16.3685V15.9606L115.426 15.5898H115.463H118.54V16.3685H115.463ZM124.732 16.3685H121.655V15.5898H124.732V16.3685Z" fill="white"/>
<path d="M20.3587 113.104H17.2442V112.325H20.3217L20.3587 113.104ZM14.1668 113.104H11.0894V112.325H14.1668V113.104ZM7.93779 113.067C6.7884 112.992 5.75023 112.473 4.9716 111.621L5.56484 111.064C6.19516 111.769 7.08501 112.177 8.01195 112.251L7.93779 113.067ZM23.4361 111.88L22.88 111.287C23.5845 110.656 23.9923 109.767 24.0665 108.84L24.8451 108.914C24.808 110.026 24.2889 111.101 23.4361 111.88ZM4.56375 108.58L4.19298 108.543H3.74805V105.466H4.52667L4.56375 108.58ZM24.8822 105.762H24.1035V102.685H24.8822V105.762ZM4.56375 102.351H3.78513V99.2737H4.56375V102.351ZM24.8822 99.5704H24.1035V96.4929H24.8822V99.5704ZM4.56375 96.2334L3.78513 96.1592C3.85928 95.0098 4.37836 93.9717 5.23114 93.193L5.7873 93.7863C5.08283 94.4166 4.63791 95.2694 4.56375 96.2334ZM23.1025 93.9717C22.4721 93.2672 21.5823 92.8593 20.6553 92.7852L20.7295 92.0066C21.8789 92.0807 22.9171 92.5998 23.6957 93.4526L23.1025 93.9717ZM8.30857 92.7481V92.3403L8.27149 91.9695H8.30857H11.386V92.7481H8.30857ZM17.5779 92.7481H14.5005V91.9695H17.5779V92.7481Z" fill="white"/>
<path opacity="0.21" d="M309.123 178.805C319.382 178.805 327.698 170.488 327.698 160.229C327.698 149.97 319.382 141.653 309.123 141.653C298.864 141.653 290.547 149.97 290.547 160.229C290.547 170.488 298.864 178.805 309.123 178.805Z" fill="url(#paint1_linear_294_5404)"/>
<path opacity="0.21" d="M87.1695 106.986C97.4286 106.986 105.745 98.6694 105.745 88.4103C105.745 78.1511 97.4286 69.8345 87.1695 69.8345C76.9104 69.8345 68.5938 78.1511 68.5938 88.4103C68.5938 98.6694 76.9104 106.986 87.1695 106.986Z" fill="url(#paint2_linear_294_5404)"/>
<path opacity="0.21" d="M25.5476 149.699C31.3631 149.699 36.0775 144.985 36.0775 139.169C36.0775 133.354 31.3631 128.639 25.5476 128.639C19.732 128.639 15.0176 133.354 15.0176 139.169C15.0176 144.985 19.732 149.699 25.5476 149.699Z" fill="url(#paint3_linear_294_5404)"/>
<path d="M27.95 164.123C23.0558 174.616 15.0471 170.871 19.9784 160.378C24.8726 149.885 32.8442 153.63 27.95 164.123Z" fill="#48E6CB"/>
<path opacity="0.4" d="M18.4217 176.136C18.3105 176.136 18.2734 176.061 18.2734 175.95C18.9408 165.902 26.5788 155.78 26.6529 155.669C26.69 155.595 26.8012 155.595 26.8754 155.632C26.9495 155.669 26.9495 155.78 26.9125 155.854C26.8383 155.965 19.2374 166.051 18.6071 175.987C18.6071 176.061 18.533 176.136 18.4217 176.136Z" fill="white"/>
<path d="M3.4788 164.123C8.37302 174.616 16.3817 170.871 11.4504 160.378C6.5933 149.885 -1.41542 153.63 3.4788 164.123Z" fill="#48E6CB"/>
<path opacity="0.4" d="M13.0073 176.136C12.9331 176.136 12.859 176.061 12.859 175.987C12.2287 166.051 4.62781 155.965 4.55365 155.854C4.51658 155.78 4.51657 155.669 4.59073 155.632C4.66488 155.595 4.77612 155.595 4.81319 155.669C4.88735 155.78 12.5253 165.939 13.1927 175.95C13.1927 176.024 13.1185 176.098 13.0073 176.136Z" fill="white"/>
<path d="M12.0448 159.488C12.6381 171.056 21.4254 170.611 20.8693 159.043C20.276 147.475 11.4887 147.92 12.0448 159.488Z" fill="#48E6CB"/>
<path opacity="0.4" d="M16.2321 176.135C16.1209 176.135 16.0838 176.061 16.0838 175.95C16.7512 167.904 16.6771 161.898 16.4917 158.264C16.2692 154.334 15.8984 152.258 15.8984 152.258C15.8984 152.183 15.9355 152.072 16.0097 152.072C16.0838 152.072 16.1951 152.109 16.1951 152.183C16.1951 152.221 16.5658 154.297 16.7883 158.227C16.9737 161.861 17.0849 167.904 16.3804 175.987C16.3804 176.061 16.3063 176.135 16.2321 176.135Z" fill="white"/>
<path d="M25.6144 173.8L25.2436 180.436L24.9099 186.48L24.5762 192.153L24.2425 198.234L23.9088 204.129L23.5381 210.21L23.3156 214.436L23.0931 218.404H9.0408L9.00372 217.551L8.67002 211.693L8.41048 207.28L8.11386 201.682L7.74309 195.675L7.44647 190.077L7.11277 184.33L6.77908 178.731L6.51953 173.8H25.6144Z" fill="#35234F"/>
<g opacity="0.29">
<path d="M25.2438 180.436L24.9101 186.48L18.2733 189.298L11.5252 182.995L7.11299 184.33L6.7793 178.731L12.9712 176.877L19.4227 182.883L25.2438 180.436Z" fill="#C9E0F4"/>
<path d="M24.577 192.153L24.2433 198.233L17.384 201.126L10.6359 194.822L7.74389 195.675L7.44727 190.076L12.0449 188.705L18.4963 194.711L24.577 192.153Z" fill="#C9E0F4"/>
<path d="M23.9102 204.129L23.5394 210.209L16.4576 213.176L9.70956 206.909L8.41185 207.28L8.11523 201.682L11.1556 200.755L17.6071 206.761L23.9102 204.129Z" fill="#C9E0F4"/>
</g>
<path d="M29.6641 208.875C29.6641 213.473 33.3719 217.18 37.9696 217.18H318.06C322.658 217.18 326.365 213.473 326.365 208.875V59.5645H29.6641V208.875Z" fill="white"/>
<g opacity="0.2">
<path d="M317.949 37.4292H37.8583C33.2606 37.4292 29.5527 41.1369 29.5527 45.7345V59.5644V208.838C29.5527 213.436 33.2606 217.143 37.8583 217.143H317.949C322.546 217.143 326.254 213.436 326.254 208.838V59.5644V45.7716C326.254 41.174 322.546 37.4292 317.949 37.4292Z" fill="url(#paint4_linear_294_5404)"/>
</g>
<path d="M318.06 37.4292H38.0067C33.409 37.4292 29.7012 41.1369 29.7012 45.7345V59.5644H326.402V45.7716C326.402 41.174 322.658 37.4292 318.06 37.4292Z" fill="#6037FF"/>
<path d="M50.168 50.8688C51.8105 49.5786 52.0961 47.2011 50.8059 45.5586C49.5156 43.9161 47.1381 43.6305 45.4956 44.9207C43.853 46.2109 43.5674 48.5884 44.8577 50.2309C46.1479 51.8734 48.5254 52.159 50.168 50.8688Z" fill="white"/>
<path d="M65.9649 50.8717C67.6074 49.5815 67.893 47.2041 66.6028 45.5616C65.3125 43.919 62.935 43.6334 61.2925 44.9236C59.6499 46.2139 59.3643 48.5913 60.6546 50.2338C61.9448 51.8763 64.3223 52.1619 65.9649 50.8717Z" fill="#F4BD3F"/>
<path opacity="0.3" d="M81.7598 50.8746C83.4023 49.5844 83.6879 47.207 82.3977 45.5645C81.1074 43.922 78.7299 43.6364 77.0874 44.9266C75.4448 46.2168 75.1592 48.5942 76.4495 50.2367C77.7397 51.8793 80.1172 52.1648 81.7598 50.8746Z" fill="white"/>
<mask id="mask0_294_5404" style="mask-type:luminance" maskUnits="userSpaceOnUse" x="29" y="59" width="298" height="159">
<path d="M29.668 208.875C29.668 213.473 33.3758 217.18 37.9735 217.18H318.064C322.662 217.18 326.369 213.473 326.369 208.875V59.5645H29.668V208.875Z" fill="white"/>
</mask>
<g mask="url(#mask0_294_5404)">
<path opacity="0.45" d="M96.5977 235.534H255.849C268.085 235.534 278.022 225.597 278.022 213.362V175.877H285.327V227.896C285.327 235.386 279.246 241.467 271.756 241.467H189.664C177.429 241.467 167.492 251.403 167.492 263.639V282.882H176.057V263.639C176.057 256.149 182.138 250.069 189.627 250.069H271.682C283.918 250.069 293.855 240.132 293.855 227.896V175.877H313.061V206.095H321.627V175.877H333.232V164.865H321.627V140.245H335.865V131.68H321.627V66.4983C321.627 54.2628 311.69 44.3261 299.454 44.3261H293.818V6.24756H285.253V44.3261H187.922V18.1865H176.91V44.3261H24.8881V52.8909H176.872V92.0447H108.945C96.0415 92.0447 85.5483 102.538 85.5483 115.441V131.68H-41.2969V140.245H85.5483V226.969H6.34887V235.534H85.5483V319.922H96.5606V235.534H96.5977ZM96.5977 131.68V115.441C96.5977 108.618 102.122 103.094 108.945 103.094H176.872V131.68H96.5977ZM187.922 131.68V103.094H193.595C198.23 103.094 202.457 105.652 204.57 109.805L215.842 131.68H187.922ZM228.226 131.68L214.359 104.762C210.317 96.9389 202.382 92.0817 193.558 92.0817H187.885V52.8909H285.29V131.68H228.226ZM293.892 131.68V52.8909H299.528C307.018 52.8909 313.098 58.9716 313.098 66.4613V131.643H293.892V131.68ZM313.098 140.245V164.865H293.892V140.245H313.098ZM285.327 140.245V164.865H252.883C248.248 164.865 244.021 162.306 241.908 158.154L232.713 140.245H285.327ZM96.5977 226.969V140.245H176.91V156.485C176.91 163.307 171.385 168.832 164.562 168.832H150.732C141.203 168.832 132.712 174.542 129.078 183.366L111.244 226.969H96.5977ZM123.146 226.969L139.275 187.519C141.166 182.847 145.652 179.844 150.695 179.844H164.525C177.429 179.844 187.922 169.351 187.922 156.448V140.208H220.254L232.082 163.159C236.124 170.982 244.059 175.84 252.883 175.84H269.457V213.325C269.457 220.814 263.376 226.895 255.887 226.895H123.146V226.969Z" fill="#C7D9E9"/>
<path d="M256.517 211.508V198.457C256.517 195.602 254.181 193.303 251.326 193.303L169.643 193.192C167.714 193.192 165.935 194.267 165.045 195.973L158.148 209.098C156.331 212.546 158.853 216.699 162.746 216.699H251.289C254.181 216.699 256.517 214.363 256.517 211.508Z" fill="#48E6CB"/>
<path d="M193.591 103.094H187.918V131.68H215.837L204.566 109.805C202.452 105.652 198.226 103.094 193.591 103.094Z" fill="#48E6CB"/>
<path d="M313.093 140.245H293.887V164.865H313.093V140.245Z" fill="#695EF3"/>
</g>
<path d="M231.667 203.647L224.363 184.33L222.212 178.657C219.728 172.057 224.585 165.013 231.667 165.013C238.749 165.013 243.606 172.057 241.122 178.657L238.971 184.33L231.667 203.647Z" fill="url(#paint5_linear_294_5404)"/>
<path d="M231.778 180.956C234.891 180.956 237.414 178.433 237.414 175.32C237.414 172.208 234.891 169.685 231.778 169.685C228.666 169.685 226.143 172.208 226.143 175.32C226.143 178.433 228.666 180.956 231.778 180.956Z" fill="white"/>
<g opacity="0.32">
<path d="M233.967 167.719C235.116 167.979 236.191 168.535 237.081 169.351C239.417 171.39 240.27 174.653 239.269 177.656L233.003 196.417L231.668 195.972L237.934 177.211C238.75 174.727 238.045 172.058 236.154 170.389C235.413 169.759 234.56 169.314 233.633 169.091L233.967 167.719Z" fill="#FFBDD1"/>
</g>
<path d="M54.3531 101.091C60.9058 101.091 66.2178 95.8291 66.2178 89.3378C66.2178 82.8465 60.9058 77.5842 54.3531 77.5842C47.8003 77.5842 42.4883 82.8465 42.4883 89.3378C42.4883 95.8291 47.8003 101.091 54.3531 101.091Z" fill="#35234F"/>
<path d="M54.352 100.053C60.3314 100.053 65.1786 95.2556 65.1786 89.3377C65.1786 83.4197 60.3314 78.6223 54.352 78.6223C48.3726 78.6223 43.5254 83.4197 43.5254 89.3377C43.5254 95.2556 48.3726 100.053 54.352 100.053Z" fill="white"/>
<path d="M55.4282 89.8198L49.125 94.677L53.2777 87.9289L59.5808 83.0347L55.4282 89.8198Z" fill="url(#paint6_linear_294_5404)"/>
<path d="M55.4278 89.8198L53.2773 87.9289L59.5805 83.0347L55.4278 89.8198Z" fill="#FFD717"/>
<path d="M54.8351 98.2734H53.8711V100.276H54.8351V98.2734Z" fill="#35234F"/>
<path d="M54.8351 77.918H53.8711V79.9201H54.8351V77.918Z" fill="#35234F"/>
<path d="M45.0879 89.3517V88.3877H43.0857V89.3517H45.0879Z" fill="#35234F"/>
<path d="M65.1621 89.8166V88.8525H63.1599V89.8166H65.1621Z" fill="#35234F"/>
<path d="M144.789 217.18L145.012 213.361L148.571 213.509L155.616 217.18H144.789Z" fill="#48E6CB"/>
<path d="M123.506 217.18L126.732 213.361L130.254 213.806L130.921 217.18H123.506Z" fill="#48E6CB"/>
<path d="M148.57 213.51L148.014 213.473L145.011 213.361L144.01 153.444L155.912 154.038L148.57 213.51Z" fill="#231638"/>
<path d="M138.931 153.444L126.732 213.361L130.255 213.806L144.307 175.987L151.686 153.593L138.931 153.444Z" fill="#35234F"/>
<path d="M135.666 129.121L138.929 153.444L155.947 154.037L153.092 126.489C153.092 126.489 151.276 125.117 147.012 124.45C146.122 124.301 145.269 124.116 144.453 124.042C143.897 124.005 143.341 124.005 142.896 124.079C142.266 124.153 141.635 124.375 141.005 124.709C140.56 124.932 140.152 125.154 139.745 125.451C137.483 126.934 135.666 129.121 135.666 129.121Z" fill="#48E6CB"/>
<path opacity="0.2" d="M151.683 154.149C151.683 154.149 149.681 168.794 147.827 173.726C145.936 178.657 144.601 180.362 144.601 180.362L144.305 176.024L151.683 154.149Z" fill="#0C0716"/>
<path opacity="0.2" d="M130.255 213.806L127.252 211.1L126.732 213.361L130.255 213.806Z" fill="#0C0716"/>
<path d="M177.862 133.608C177.862 133.608 179.605 133.311 181.459 131.68C183.313 130.048 185.463 127.861 183.239 128.454C181.014 129.047 180.569 131.272 180.235 130.864C179.939 130.419 180.05 129.196 179.42 130.048C178.789 130.901 178.085 131.087 176.787 131.791L177.862 133.608Z" fill="#F9C5A2"/>
<path d="M152.389 126.044C153.427 126.526 155.985 128.825 157.431 129.937C158.915 131.049 160.657 132.458 162.734 133.904C162.771 133.904 162.771 133.904 162.808 133.904C162.993 133.904 163.178 133.904 163.364 133.867C168.888 133.571 175.562 131.568 178.454 130.642C179.344 130.345 179.9 130.16 179.9 130.16L181.235 133.534L181.346 133.756C181.346 133.756 180.864 134.016 179.974 134.423C179.604 134.609 179.159 134.794 178.603 135.017C177.305 135.573 175.525 136.277 173.375 136.945C172.225 137.316 170.965 137.835 169.63 138.391C167.628 139.206 165.403 140.059 162.993 140.43H162.956C162.882 140.43 162.845 140.467 162.771 140.467C162.696 140.467 162.659 140.467 162.585 140.504C162.437 140.541 162.289 140.541 162.177 140.504C161.918 140.541 161.621 140.467 161.362 140.393H161.325C161.25 140.356 161.213 140.356 161.139 140.319C161.102 140.319 161.102 140.282 161.065 140.282C160.88 140.17 160.694 140.096 160.546 139.985C159.397 139.355 158.358 138.724 157.357 138.057C157.209 137.946 157.061 137.872 156.949 137.76C155.911 137.056 154.947 136.314 154.094 135.573C149.831 131.828 148.125 128.157 148.125 128.157C148.125 128.157 149.497 124.672 152.389 126.044Z" fill="#48E6CB"/>
<path opacity="0.2" d="M153.576 131.05C153.576 131.05 159.62 138.168 162.104 138.725C163.513 139.021 166.924 138.762 169.631 138.465C167.629 139.281 165.404 140.134 162.994 140.504H162.957C162.883 140.504 162.846 140.541 162.771 140.541C162.697 140.541 162.66 140.541 162.586 140.578C162.438 140.616 162.289 140.616 162.178 140.578C161.919 140.616 161.622 140.541 161.362 140.467H161.325C161.251 140.43 161.214 140.43 161.14 140.393C161.103 140.393 161.103 140.356 161.066 140.356C160.88 140.245 160.695 140.171 160.547 140.059C159.397 139.429 158.359 138.799 157.358 138.131C157.21 138.02 157.061 137.946 156.95 137.835C155.912 137.13 154.948 136.389 154.095 135.647L153.984 135.499L153.576 131.05Z" fill="#231638"/>
<path d="M137.002 127.712L137.892 129.418C137.929 130.085 137.261 133.459 136.965 134.794C136.742 135.906 136.928 137.13 137.298 138.391C137.966 140.652 139.226 142.988 139.523 144.62C141.97 146.993 144.603 148.624 146.827 149.699C147.903 150.218 148.904 150.626 149.756 150.923C150.164 151.071 150.498 151.182 150.832 151.294C151.796 151.59 152.352 151.701 152.352 151.701L152.278 152.183L151.87 155.335L151.759 156.188C151.202 156.151 150.609 156.077 150.053 155.965C142.267 154.779 136.965 150.886 134.518 148.735C134.443 148.661 134.369 148.587 134.295 148.513C133.739 148.105 133.368 147.475 133.072 146.733C128.474 135.017 137.002 127.712 137.002 127.712Z" fill="#48E6CB"/>
<path opacity="0.2" d="M137.224 135.573C137.224 135.573 136.408 141.097 138.559 144.99C140.709 148.884 152.5 151.145 152.5 151.145C152.5 151.145 137.15 148.809 137.224 135.573Z" fill="#231638"/>
<path d="M152.057 153.926C152.057 153.926 153.206 155.409 155.913 156.114C158.619 156.818 162.03 157.3 159.917 155.409C157.804 153.518 156.617 154.668 156.135 153.963C155.727 153.407 156.543 152.295 155.839 152.035C154.689 151.664 154.318 151.664 152.539 151.145L152.057 153.926Z" fill="#F9C5A2"/>
<path opacity="0.2" d="M139.783 125.451C140.339 126.489 141.934 128.862 144.344 128.751C146.605 128.64 147.013 125.896 147.05 124.487C146.161 124.302 145.308 124.153 144.492 124.079L141.044 124.709C140.599 124.932 140.191 125.154 139.783 125.451Z" fill="#231638"/>
<path d="M144.826 118.703L146.161 124.746C146.161 124.746 146.606 127.379 144.567 127.675C142.49 127.972 141.304 126.044 141.304 126.044L140.414 119.11L144.826 118.703Z" fill="#F9C5A2"/>
<path opacity="0.2" d="M145.418 121.261C145.418 121.261 142.749 121.409 141.191 119.481C141.191 119.481 142.007 123.448 146.16 124.709L145.418 121.261Z" fill="#231638"/>
<path d="M140.118 116.256C139.413 119.037 141.119 121.854 143.9 122.559C146.681 123.263 148.646 121.743 149.35 118.962C150.055 116.182 149.202 113.178 146.421 112.474C143.64 111.769 140.822 113.475 140.118 116.256Z" fill="#F9C5A2"/>
<path d="M154.059 112.066C154.059 112.066 151.649 116.515 147.533 116.07C143.418 115.625 141.452 114.179 141.452 114.179L140.118 117.924C140.118 117.924 138.078 113.809 139.339 110.768C140.637 107.691 142.009 109.285 142.009 109.285C142.009 109.285 143.047 107.357 147.607 108.544C152.168 109.73 155.579 107.765 155.579 107.765C155.579 107.765 155.023 110.657 154.059 112.066Z" fill="#35234F"/>
<path d="M142.145 117.687C142.471 116.695 141.868 115.605 140.798 115.254C139.728 114.902 138.596 115.421 138.27 116.413C137.944 117.405 138.547 118.495 139.617 118.846C140.687 119.198 141.819 118.679 142.145 117.687Z" fill="#F9C5A2"/>
<path d="M155.414 154.877H191.119V125.104H155.414V154.877Z" fill="#9892FF"/>
<path d="M155.395 125.08L190.173 148.735V125.08H155.395Z" fill="#695EF3"/>
<path d="M190.155 154.877H208.842V125.104H190.155V154.877Z" fill="#5350E2"/>
<path d="M155.424 148.711H175.928V145.449H155.424V148.711Z" fill="#5350E2"/>
<path d="M204.435 148.711H208.848V145.449H204.435V148.711Z" fill="#9892FF"/>
<path d="M256.323 218.404L256.1 214.585L252.541 214.734L245.496 218.404H256.323Z" fill="#FFD717"/>
<path d="M277.607 218.404L274.381 214.585L270.859 215.03L270.191 218.404H277.607Z" fill="#FFD717"/>
<path d="M252.539 214.733H253.095L256.098 214.585L257.099 154.668L245.197 155.261L252.539 214.733Z" fill="#231638"/>
<path d="M262.18 154.668L274.379 214.585L270.857 215.03L256.804 177.211L249.426 154.816L262.18 154.668Z" fill="#35234F"/>
<path d="M265.443 130.382L262.181 154.705L245.162 155.298L248.017 127.75C248.017 127.75 249.834 126.378 254.098 125.711C254.988 125.562 255.84 125.377 256.656 125.303C257.212 125.266 257.768 125.266 258.213 125.34C258.844 125.414 259.474 125.636 260.104 125.97C260.549 126.193 260.957 126.415 261.365 126.712C263.627 128.195 265.443 130.382 265.443 130.382Z" fill="#FFD717"/>
<path opacity="0.2" d="M249.426 155.373C249.426 155.373 251.428 170.018 253.282 174.949C255.173 179.881 256.508 181.586 256.508 181.586L256.804 177.248L249.426 155.373Z" fill="#0C0716"/>
<path opacity="0.2" d="M270.857 215.03L273.861 212.323L274.38 214.585L270.857 215.03Z" fill="#0C0716"/>
<path d="M223.248 134.832C223.248 134.832 221.506 134.535 219.652 132.904C217.761 131.272 215.648 129.085 217.872 129.678C220.097 130.271 220.542 132.496 220.876 132.088C221.172 131.643 221.061 130.419 221.691 131.272C222.322 132.088 223.026 132.31 224.324 133.015L223.248 134.832Z" fill="#F9C5A2"/>
<path d="M248.721 127.305C247.683 127.787 245.125 130.086 243.679 131.198C242.196 132.31 240.453 133.719 238.377 135.165C238.339 135.165 238.339 135.165 238.302 135.165C238.117 135.165 237.932 135.165 237.746 135.128C232.222 134.832 225.548 132.829 222.656 131.903C221.766 131.606 221.21 131.421 221.21 131.421L219.875 134.795L219.764 135.017C219.764 135.017 220.246 135.277 221.136 135.684C221.506 135.87 221.951 136.055 222.507 136.278C223.805 136.834 225.585 137.538 227.735 138.206C228.885 138.576 230.145 139.096 231.48 139.652C233.482 140.467 235.707 141.32 238.117 141.691H238.154C238.228 141.691 238.265 141.728 238.339 141.728C238.414 141.728 238.451 141.728 238.525 141.765C238.673 141.802 238.821 141.802 238.933 141.765C239.192 141.802 239.489 141.728 239.748 141.654H239.785C239.86 141.617 239.897 141.617 239.971 141.58C240.008 141.58 240.008 141.543 240.045 141.543C240.23 141.431 240.416 141.357 240.564 141.246C241.713 140.616 242.752 139.985 243.753 139.318C243.901 139.207 244.049 139.133 244.161 139.021C245.199 138.317 246.163 137.575 247.016 136.834C251.279 133.089 252.985 129.418 252.985 129.418C252.985 129.418 251.613 125.933 248.721 127.305Z" fill="#FFD717"/>
<path opacity="0.2" d="M247.535 132.31C247.535 132.31 241.491 139.429 239.007 139.985C237.598 140.282 234.187 140.022 231.48 139.726C233.483 140.541 235.707 141.394 238.117 141.765H238.154C238.229 141.765 238.266 141.802 238.34 141.802C238.414 141.802 238.451 141.802 238.525 141.839C238.673 141.876 238.822 141.876 238.933 141.839C239.193 141.876 239.489 141.802 239.749 141.728H239.786C239.86 141.691 239.897 141.691 239.971 141.654C240.008 141.654 240.008 141.617 240.045 141.617C240.231 141.506 240.416 141.431 240.564 141.32C241.714 140.69 242.752 140.059 243.753 139.392C243.901 139.281 244.05 139.207 244.161 139.095C245.199 138.391 246.163 137.649 247.016 136.908L247.127 136.76L247.535 132.31Z" fill="#231638"/>
<path d="M264.108 128.936L263.218 130.642C263.181 131.309 263.848 134.683 264.145 136.018C264.367 137.13 264.182 138.354 263.811 139.614C263.144 141.876 261.883 144.212 261.587 145.843C259.139 148.216 256.507 149.848 254.282 150.923C253.207 151.442 252.206 151.85 251.353 152.147C250.945 152.295 250.612 152.406 250.278 152.517C249.314 152.814 248.758 152.925 248.758 152.925L248.832 153.37L249.24 156.522L249.351 157.374C249.907 157.337 250.5 157.263 251.057 157.152C258.843 155.965 264.145 152.072 266.592 149.922C266.666 149.848 266.74 149.774 266.815 149.699C267.371 149.292 267.741 148.661 268.038 147.92C272.636 136.277 264.108 128.936 264.108 128.936Z" fill="#FFD717"/>
<path opacity="0.2" d="M263.885 136.834C263.885 136.834 264.701 142.358 262.55 146.251C260.4 150.145 248.609 152.406 248.609 152.406C248.609 152.406 263.959 150.033 263.885 136.834Z" fill="#231638"/>
<path d="M249.055 155.15C249.055 155.15 247.905 156.633 245.199 157.338C242.492 158.042 239.081 158.524 241.194 156.633C243.308 154.742 244.494 155.892 244.976 155.187C245.384 154.631 244.568 153.519 245.273 153.259C246.422 152.888 246.793 152.888 248.573 152.369L249.055 155.15Z" fill="#F9C5A2"/>
<path opacity="0.2" d="M261.33 126.675C260.774 127.713 259.179 130.086 256.769 129.974C254.507 129.863 254.1 127.12 254.062 125.711C254.952 125.525 255.805 125.377 256.621 125.303L260.069 125.933C260.514 126.156 260.922 126.415 261.33 126.675Z" fill="#231638"/>
<path d="M256.286 119.927L254.951 125.97C254.951 125.97 254.506 128.603 256.546 128.899C258.622 129.196 259.808 127.268 259.808 127.268L260.698 120.334L256.286 119.927Z" fill="#F9C5A2"/>
<path opacity="0.2" d="M255.693 122.522C255.693 122.522 258.362 122.67 259.92 120.742C259.92 120.742 259.104 124.71 254.951 125.97L255.693 122.522Z" fill="#231638"/>
<path d="M260.995 117.479C261.699 120.26 259.993 123.078 257.213 123.783C254.432 124.487 252.467 122.967 251.762 120.186C251.058 117.405 251.911 114.402 254.691 113.697C257.472 112.993 260.29 114.699 260.995 117.479Z" fill="#F9C5A2"/>
<path d="M247.053 113.327C247.053 113.327 249.463 117.776 253.579 117.331C257.695 116.886 259.66 115.44 259.66 115.44L260.994 119.185C260.994 119.185 263.034 115.069 261.773 112.029C260.475 108.952 259.104 110.546 259.104 110.546C259.104 110.546 258.065 108.618 253.505 109.805C248.944 110.991 245.533 109.026 245.533 109.026C245.533 109.026 246.089 111.881 247.053 113.327Z" fill="#35234F"/>
<path d="M261.515 120.103C262.585 119.751 263.188 118.662 262.862 117.669C262.535 116.677 261.404 116.158 260.334 116.51C259.264 116.861 258.661 117.951 258.987 118.943C259.313 119.935 260.445 120.454 261.515 120.103Z" fill="#F9C5A2"/>
<path d="M205.671 188.334H175.676V206.094H205.671V188.334Z" fill="#695EF3"/>
<path d="M187.838 206.095H205.635V205.798C204.337 203.499 200.889 201.831 196.811 201.831C192.584 201.831 189.024 203.648 187.838 206.095Z" fill="#9892FF"/>
<path d="M174.564 181.512V198.049C174.564 199.05 175.38 199.902 176.418 199.902H201.15C202.151 199.902 203.004 199.087 203.004 198.049V181.512C203.004 181.364 202.967 181.178 202.929 181.03C202.707 180.251 202.002 179.658 201.15 179.658H176.418C175.38 179.658 174.564 180.474 174.564 181.512ZM204.079 185.183V206.094H220.06V194.563L214.943 184.812C214.795 184.515 214.498 184.367 214.201 184.367H204.932C204.487 184.33 204.079 184.701 204.079 185.183Z" fill="#5350E2"/>
<path d="M184.242 210.321C187.068 210.321 189.358 208.031 189.358 205.205C189.358 202.379 187.068 200.088 184.242 200.088C181.416 200.088 179.125 202.379 179.125 205.205C179.125 208.031 181.416 210.321 184.242 210.321Z" fill="#35234F"/>
<path d="M184.242 207.837C185.696 207.837 186.874 206.658 186.874 205.205C186.874 203.751 185.696 202.572 184.242 202.572C182.788 202.572 181.609 203.751 181.609 205.205C181.609 206.658 182.788 207.837 184.242 207.837Z" fill="white"/>
<path d="M204.076 193.97V206.094H219.055C219.167 205.501 219.204 204.871 219.204 204.24C219.204 198.123 214.272 193.191 208.155 193.191C206.746 193.191 205.337 193.488 204.076 193.97Z" fill="#695EF3"/>
<path d="M204.076 196.677V206.094H212.456C211.937 201.46 208.525 197.715 204.076 196.677Z" fill="#9892FF"/>
<path d="M212.83 210.321C215.655 210.321 217.946 208.031 217.946 205.205C217.946 202.379 215.655 200.088 212.83 200.088C210.004 200.088 207.713 202.379 207.713 205.205C207.713 208.031 210.004 210.321 212.83 210.321Z" fill="#35234F"/>
<path d="M212.83 207.837C214.284 207.837 215.462 206.659 215.462 205.205C215.462 203.751 214.284 202.572 212.83 202.572C211.376 202.572 210.197 203.751 210.197 205.205C210.197 206.659 211.376 207.837 212.83 207.837Z" fill="white"/>
<path d="M214.275 186.332L217.909 193.34C218.317 194.156 217.724 195.157 216.797 195.157H213.905H206.526C205.859 195.157 205.303 194.601 205.303 193.933V186.926C205.303 186.258 205.859 185.702 206.526 185.702H213.126C213.645 185.665 214.053 185.924 214.275 186.332Z" fill="#48E6CB"/>
<path d="M209.973 197.641H206.414C206.228 197.641 206.117 197.493 206.117 197.344V197.085C206.117 196.899 206.265 196.788 206.414 196.788H209.973C210.159 196.788 210.27 196.936 210.27 197.085V197.344C210.27 197.53 210.122 197.641 209.973 197.641Z" fill="#D8D5D2"/>
<g opacity="0.26">
<path opacity="0.31" d="M174.564 181.512V191.745C177.568 194.193 181.424 195.676 185.614 195.676C194.327 195.676 201.557 189.335 202.929 181.03C202.706 180.251 202.002 179.658 201.149 179.658H176.418C175.38 179.658 174.564 180.474 174.564 181.512Z" fill="white"/>
<path opacity="0.38" d="M174.564 181.512V190.448C176.085 190.744 177.679 190.856 179.273 190.744C186.207 190.225 191.917 185.739 194.327 179.658H176.418C175.38 179.658 174.564 180.474 174.564 181.512Z" fill="white"/>
</g>
<path fill-rule="evenodd" clip-rule="evenodd" d="M302.073 87.2984L293.693 89.9309L283.386 80.884L291.395 90.6354L282.422 93.4903L277.824 75.1741L302.073 87.2984ZM291.654 92.0443V97.0868L288.688 92.9342L291.654 92.0443Z" fill="#35234F"/>
<path d="M120.245 159.859H112.422C110.049 159.859 108.121 157.931 108.121 155.558V150.441C108.121 148.068 110.049 146.14 112.422 146.14H120.245C122.618 146.14 124.546 148.068 124.546 150.441V155.558C124.546 157.931 122.618 159.859 120.245 159.859Z" fill="#695EF3"/>
<path d="M114.313 158.486L110.012 154.445L111.347 153.036L114.276 155.817L121.802 148.142L123.174 149.514L114.313 158.486Z" fill="white"/>
<path d="M72.7814 166.755C82.6924 166.755 90.7269 158.721 90.7269 148.81C90.7269 138.899 82.6924 130.864 72.7814 130.864C62.8704 130.864 54.8359 138.899 54.8359 148.81C54.8359 158.721 62.8704 166.755 72.7814 166.755Z" fill="#FFC417"/>
<path opacity="0.3" d="M58.8057 149.959C58.8057 149.811 58.8057 149.663 58.8057 149.477C58.8057 141.172 65.5538 134.424 73.8592 134.424C76.677 134.424 79.3095 135.202 81.5713 136.537C79.0871 134.757 76.0838 133.719 72.821 133.719C64.5157 133.719 57.7676 140.467 57.7676 148.773C57.7676 148.921 57.7676 149.069 57.7676 149.255C57.9159 154.557 60.845 159.154 65.1089 161.713C61.3641 159.08 58.9541 154.816 58.8057 149.959Z" fill="#AA9B5C"/>
<path d="M87.7992 149.255C87.7992 149.106 87.7992 148.958 87.7992 148.773C87.7992 143.73 85.315 139.281 81.5331 136.537C79.2714 135.202 76.6389 134.424 73.821 134.424C65.5157 134.424 58.7676 141.172 58.7676 149.477C58.7676 149.626 58.7676 149.774 58.7676 149.959C58.9159 154.816 61.363 159.08 65.0337 161.713C67.2954 163.048 69.9279 163.826 72.7458 163.826C80.9028 163.826 87.5396 157.338 87.7992 149.255Z" fill="#FFD717"/>
<path d="M71.5933 141.468L71.6674 139.688L73.6325 139.763L73.5584 141.468C75.783 141.802 77.192 142.914 77.7852 144.805L74.5224 145.695C74.2258 144.805 73.5584 144.36 72.5573 144.323C71.7045 144.286 71.2596 144.546 71.2596 145.102C71.2596 145.287 71.3337 145.473 71.445 145.621C71.5933 145.769 71.9641 145.917 72.6314 146.103C74.1145 146.474 75.1527 146.807 75.8201 147.104C76.4504 147.401 76.9695 147.846 77.3773 148.476C77.7852 149.106 77.9706 149.848 77.9335 150.663C77.8964 151.85 77.4515 152.814 76.5616 153.555C75.7089 154.334 74.5224 154.742 73.0393 154.853L72.9651 156.633L71 156.559L71.0742 154.779C68.59 154.408 67.0698 153.036 66.5137 150.663L70.1473 150.144C70.4068 151.22 71.1854 151.776 72.4461 151.813C73.4101 151.85 73.9292 151.59 73.9292 151.071C73.9292 150.775 73.8179 150.552 73.5954 150.404C73.373 150.256 72.9651 150.07 72.409 149.959C70.1473 149.403 68.7383 148.772 68.1451 148.031C67.5518 147.289 67.2923 146.474 67.3294 145.547C67.3664 144.509 67.7372 143.619 68.4417 142.84C69.1832 142.099 70.2214 141.616 71.5933 141.468Z" fill="white"/>
<path d="M144.008 82.8491L145.417 88.1141L140.004 85.4445C139.41 85.5929 138.78 85.667 138.15 85.667C133.997 85.667 130.66 82.293 130.66 78.1774C130.66 74.0247 134.034 70.6877 138.15 70.6877C142.302 70.6877 145.639 74.0618 145.639 78.1774C145.602 79.9571 145.009 81.5885 144.008 82.8491Z" fill="#695EF3"/>
<path d="M136.258 76.8426C136.258 76.8426 138.445 76.3977 138.038 74.6921C137.63 72.9865 139.039 72.0967 139.706 73.6539C140.373 75.1741 140.003 76.3235 140.003 76.3235C140.003 76.3235 142.19 75.619 142.487 76.7684C142.783 77.9178 142.635 81.0694 140.744 81.4031C138.853 81.7368 136.258 81.5885 136.258 81.5885V76.8426Z" fill="white"/>
<path d="M136.964 76.8425H134.146V81.5884H136.964V76.8425Z" fill="white"/>
<path d="M115.832 106.912C115.832 111.287 112.273 114.847 107.897 114.847C107.267 114.847 106.674 114.773 106.081 114.624L101.261 117.257L102.039 112.251C100.742 110.843 99.9629 108.952 99.9629 106.912C99.9629 102.537 103.522 98.9778 107.897 98.9778C112.31 98.9778 115.832 102.537 115.832 106.912Z" fill="url(#paint7_linear_294_5404)"/>
<path d="M112.015 105.8C112.015 106.245 111.866 106.653 111.607 107.024L111.533 107.135L107.973 111.695L104.488 107.135L104.414 107.024C104.154 106.69 104.006 106.282 104.006 105.8C104.006 104.688 104.896 103.798 106.045 103.798C107.009 103.798 107.825 104.502 108.01 105.392C108.196 104.465 109.011 103.798 109.975 103.798C111.125 103.798 112.015 104.688 112.015 105.8Z" fill="white"/>
<path d="M186.318 89.2636V102.055C186.318 103.353 185.242 104.428 183.945 104.428H176.121C172.117 109.99 165.295 109.1 165.295 109.1C167.445 108.062 168.706 105.948 169.373 104.428H162.922C161.624 104.428 160.549 103.353 160.549 102.055V89.2636C160.549 87.9659 161.624 86.8906 162.922 86.8906H183.945C185.242 86.8906 186.318 87.9288 186.318 89.2636Z" fill="#FFD717"/>
<path d="M167.26 98.0881C168.366 98.0881 169.262 97.1917 169.262 96.0859C169.262 94.9802 168.366 94.0837 167.26 94.0837C166.154 94.0837 165.258 94.9802 165.258 96.0859C165.258 97.1917 166.154 98.0881 167.26 98.0881Z" fill="white"/>
<path d="M173.414 98.0881C174.52 98.0881 175.416 97.1917 175.416 96.0859C175.416 94.9802 174.52 94.0837 173.414 94.0837C172.309 94.0837 171.412 94.9802 171.412 96.0859C171.412 97.1917 172.309 98.0881 173.414 98.0881Z" fill="white"/>
<path d="M179.608 98.0881C180.713 98.0881 181.61 97.1917 181.61 96.0859C181.61 94.9802 180.713 94.0837 179.608 94.0837C178.502 94.0837 177.605 94.9802 177.605 96.0859C177.605 97.1917 178.502 98.0881 179.608 98.0881Z" fill="white"/>
<defs>
<linearGradient id="paint0_linear_294_5404" x1="72.8739" y1="282.596" x2="351.506" y2="-4.95345" gradientUnits="userSpaceOnUse">
<stop stop-color="#5CA2FF"/>
<stop offset="1" stop-color="#84C2FF"/>
</linearGradient>
<linearGradient id="paint1_linear_294_5404" x1="322.997" y1="174.833" x2="295.892" y2="146.31" gradientUnits="userSpaceOnUse">
<stop stop-color="#5CA2FF"/>
<stop offset="1" stop-color="#84C2FF"/>
</linearGradient>
<linearGradient id="paint2_linear_294_5404" x1="101.055" y1="103.015" x2="73.9496" y2="74.4914" gradientUnits="userSpaceOnUse">
<stop stop-color="#5CA2FF"/>
<stop offset="1" stop-color="#84C2FF"/>
</linearGradient>
<linearGradient id="paint3_linear_294_5404" x1="33.4113" y1="147.434" x2="18.065" y2="131.284" gradientUnits="userSpaceOnUse">
<stop stop-color="#5CA2FF"/>
<stop offset="1" stop-color="#84C2FF"/>
</linearGradient>
<linearGradient id="paint4_linear_294_5404" x1="29.5613" y1="127.309" x2="326.266" y2="127.309" gradientUnits="userSpaceOnUse">
<stop stop-color="#5CA2FF"/>
<stop offset="1" stop-color="#84C2FF"/>
</linearGradient>
<linearGradient id="paint5_linear_294_5404" x1="221.556" y1="184.33" x2="241.791" y2="184.33" gradientUnits="userSpaceOnUse">
<stop stop-color="#FF8E85"/>
<stop offset="0.999" stop-color="#FF4444"/>
</linearGradient>
<linearGradient id="paint6_linear_294_5404" x1="49.1231" y1="88.8655" x2="59.5864" y2="88.8655" gradientUnits="userSpaceOnUse">
<stop stop-color="#FF8E85"/>
<stop offset="0.999" stop-color="#FF4444"/>
</linearGradient>
<linearGradient id="paint7_linear_294_5404" x1="99.9692" y1="108.127" x2="115.847" y2="108.127" gradientUnits="userSpaceOnUse">
<stop stop-color="#FF8E85"/>
<stop offset="0.999" stop-color="#FF4444"/>
</linearGradient>
</defs>
</svg>
