<svg width="33" height="30" viewBox="0 0 33 30" fill="none" xmlns="http://www.w3.org/2000/svg">
<path d="M1 1V27.0667C1 28.1344 1.86558 29 2.93333 29H32" stroke="#BC0C34" stroke-width="1.5" stroke-linecap="round"/>
<path d="M5.9043 29.0006V15.0272C5.9043 14.6001 6.25053 14.2539 6.67763 14.2539H10.036C10.4631 14.2539 10.8094 14.6001 10.8094 15.0272V29.0006" stroke="#BC0C34" stroke-width="1.5" stroke-linecap="round"/>
<path d="M14.1445 28.9985V18.9452C14.1445 18.5181 14.4908 18.1719 14.9179 18.1719H18.2763C18.7034 18.1719 19.0496 18.5181 19.0496 18.9452V28.9985" stroke="#BC0C34" stroke-width="1.5" stroke-linecap="round"/>
<path d="M5.9759 1.34297C5.64971 1.08768 5.17833 1.14517 4.92304 1.47136C4.66776 1.79756 4.72525 2.26894 5.05144 2.52422L5.9759 1.34297ZM29.1561 15.7469L26.5627 7.48411L20.7036 13.8615L29.1561 15.7469ZM18.2288 5.95255L18.7457 6.49592L18.2288 5.95255ZM18.4928 5.95025L17.9854 6.50254L18.4928 5.95025ZM14.6763 9.10438L15.1386 8.51375L14.6763 9.10438ZM14.9287 9.0922L15.4457 9.63557L14.9287 9.0922ZM5.05144 2.52422L14.2141 9.69501L15.1386 8.51375L5.9759 1.34297L5.05144 2.52422ZM15.4457 9.63557L18.7457 6.49592L17.7118 5.40918L14.4118 8.54883L15.4457 9.63557ZM17.9854 6.50254L23.678 11.7325L24.6928 10.6279L19.0002 5.39795L17.9854 6.50254ZM18.7457 6.49592C18.5335 6.69782 18.2011 6.70072 17.9854 6.50254L19.0002 5.39795C18.6347 5.06211 18.0714 5.06702 17.7118 5.40918L18.7457 6.49592ZM14.2141 9.69501C14.5826 9.98337 15.1067 9.95808 15.4457 9.63557L14.4118 8.54883C14.6118 8.35851 14.9211 8.34359 15.1386 8.51375L14.2141 9.69501Z" fill="#BC0C34"/>
<path d="M23.1719 29.0002V21.9335C23.1719 21.5064 23.5181 21.1602 23.9452 21.1602H27.1074C27.5345 21.1602 27.8807 21.5064 27.8807 21.9335V29.0002" stroke="#BC0C34" stroke-width="1.5" stroke-linecap="round"/>
</svg>
