<svg width="24" height="24" viewBox="0 0 24 24" fill="none" xmlns="http://www.w3.org/2000/svg">
<path d="M14.9114 18.8C14.9114 18 15.1646 17.4667 15.4177 16.6667H5.03797V14.4H18.2025V14.6667C18.5823 14.6667 18.7089 14.6667 18.962 14.6667C19.8481 14.6667 20.6076 14.9333 21.2405 15.4667V4.13333C21.2405 2.93333 20.3544 2 19.3418 2H4.1519C2.88608 2 2 2.93333 2 4.13333V20C2 21.0667 2.88608 22 4.02532 22H16.4304C15.5443 21.3333 14.9114 20.1333 14.9114 18.8ZM5.03797 6.13333H18.2025V8.4H5.03797V6.13333ZM5.03797 10.2667H18.2025V12.5333H5.03797V10.2667ZM18.962 15.7333C17.3165 15.7333 15.9241 17.0667 15.9241 18.8C15.9241 20.5333 17.3165 21.8667 18.962 21.8667C20.6076 21.8667 22 20.5333 22 18.8C22 17.2 20.6076 15.7333 18.962 15.7333ZM20.8608 19.3333H19.3418V20.8H18.4557V19.3333H17.1899V18.4H18.4557V16.8H19.3418V18.4H20.8608V19.3333Z" fill="#222222"/>
</svg>
