<svg width="24" height="24" viewBox="0 0 24 24" fill="none" xmlns="http://www.w3.org/2000/svg">
<path d="M15.6537 13.6031C15.4967 13.4672 15.2225 13.4555 15.0654 13.5938C14.224 14.318 13.1529 14.7398 11.9975 14.7398C10.8514 14.7398 9.7709 14.3203 8.92949 13.5844C8.77246 13.4484 8.53105 13.4484 8.3623 13.5844C7.15293 14.6344 5.46309 15.0352 3.7709 14.4773C3.69824 14.4563 3.59277 14.4258 3.59277 14.4047V19.657C3.59277 20.8758 4.52793 21.6328 5.74668 21.6328H18.26C19.4787 21.6328 20.4982 20.8758 20.4982 19.657V14.4C18.7123 15.0938 16.9053 14.7047 15.6537 13.6031ZM8.95059 20.4844C8.95059 20.7375 8.73027 20.9367 8.47715 20.9367C8.22402 20.9367 8.00371 20.7375 8.00371 20.4844V15.1266C8.00371 14.8734 8.22402 14.6742 8.47715 14.6742C8.73027 14.6742 8.95059 14.8734 8.95059 15.1266V20.4844Z" fill="#BC0C34"/>
<path d="M22.3807 9.16797L22.3385 9.04141L19.5635 3.37891C19.2588 2.76953 18.6377 2.37109 17.9557 2.37109H5.98848C5.30645 2.37109 4.67598 2.76016 4.38066 3.37891L1.6502 9.05312C1.64082 9.08359 1.61973 9.1375 1.60801 9.16797C1.52363 9.48203 1.49316 9.74688 1.49316 10.0516C1.49316 11.7648 2.59707 13.2672 4.24707 13.7195C5.88535 14.1602 7.42051 13.5297 8.30176 12.3742C8.47051 12.1539 8.81738 12.1539 8.99551 12.3742C9.68926 13.2789 10.7814 13.8555 12.0002 13.8555C13.2189 13.8555 14.3111 13.2766 15.0049 12.3742C15.183 12.1539 15.5205 12.1422 15.6986 12.3742C16.5283 13.457 17.9252 14.0875 19.4393 13.8039C21.1525 13.4781 22.5799 11.6594 22.5072 9.91563C22.4838 9.6625 22.4416 9.41875 22.3807 9.16797Z" fill="#BC0C34"/>
</svg>
