<svg width="42" height="42" viewBox="0 0 42 42" fill="none" xmlns="http://www.w3.org/2000/svg">
<rect width="42" height="42" rx="21" fill="black"/>
<path d="M19.0108 29.3864V32.3677H21.9921V29.3864H19.0108ZM26.7188 19.075C27.1551 18.2897 27.3733 17.4317 27.3733 16.5009C27.3733 14.8916 26.7526 13.5194 25.5118 12.3852C24.2705 11.2509 22.6077 10.6836 20.5232 10.6836C18.5549 10.6836 16.9721 11.2121 15.7749 12.2688C14.5773 13.3257 13.8575 14.8479 13.6152 16.8354L16.3057 17.1553C16.5383 15.672 17.0279 14.5812 17.7745 13.8832C18.521 13.185 19.4518 12.836 20.5668 12.836C21.7206 12.836 22.695 13.2214 23.4901 13.9921C24.285 14.763 24.6828 15.6574 24.6828 16.6755C24.6828 17.2379 24.5467 17.7567 24.2754 18.2315C24.0039 18.7068 23.415 19.3442 22.5084 20.1441C21.6018 20.9439 20.9742 21.5524 20.625 21.9693C20.15 22.5414 19.8057 23.1086 19.5926 23.6707C19.3016 24.4175 19.1563 25.3047 19.1563 26.3321C19.1563 26.5067 19.161 26.7684 19.1708 27.1176H21.6867C21.706 26.0704 21.7787 25.314 21.905 24.8489C22.0307 24.3835 22.2248 23.9714 22.4866 23.6126C22.7485 23.2541 23.3059 22.6964 24.1592 21.9402C25.4291 20.8155 26.2824 19.8606 26.7188 19.075Z" fill="white"/>
</svg>
