<svg width="20" height="20" viewBox="0 0 20 20" fill="none" xmlns="http://www.w3.org/2000/svg">
<path d="M3.6196 11.1389L3.6262 11.1455L9.02439 16.353C9.23837 16.5596 9.51225 16.6758 9.79706 16.6809C10.0819 16.6859 10.359 16.5795 10.579 16.3807L16.1446 11.3433C16.6156 10.9644 17.0064 10.478 17.29 9.91738C17.5736 9.35679 17.7434 8.73536 17.7875 8.09583C17.8317 7.45631 17.7492 6.81386 17.5458 6.21269C17.3424 5.61151 17.0229 5.06587 16.6092 4.6133C16.1956 4.16073 15.6976 3.81196 15.1496 3.59099C14.6015 3.37002 14.0164 3.28209 13.4345 3.33325C12.8525 3.38441 12.2876 3.57344 11.7785 3.88734C11.2694 4.20124 10.8283 4.63257 10.4854 5.15165L9.99999 5.88663L9.51459 5.15297C9.17918 4.64509 8.74961 4.22107 8.25419 3.90884C7.75877 3.59662 7.20875 3.40329 6.64037 3.34158C6.072 3.27987 5.49817 3.35119 4.9567 3.55084C4.41524 3.75049 3.91843 4.07394 3.49903 4.49986C3.07962 4.92579 2.74713 5.44453 2.52347 6.02189C2.29981 6.59926 2.19007 7.22214 2.20146 7.84949C2.21285 8.47684 2.34513 9.09442 2.58957 9.66152C2.83401 10.2286 3.18506 10.7317 3.6196 11.1389ZM1 7.75934C0.999978 6.61347 1.31109 5.49364 1.89354 4.54308C2.47598 3.59252 3.30329 2.85445 4.26964 2.42328C5.23599 1.99211 6.29745 1.88743 7.31824 2.12264C8.33904 2.35785 9.27277 2.92225 9.99999 3.74365C10.7272 2.92225 11.6609 2.35785 12.6817 2.12264C13.7025 1.88743 14.764 1.99211 15.7303 2.42328C16.6967 2.85445 17.524 3.59252 18.1064 4.54308C18.6889 5.49364 19 6.61347 19 7.75934C19.002 8.65886 18.8112 9.54627 18.443 10.3497C18.0749 11.1532 17.5397 11.8501 16.8808 12.3841L11.3428 17.3978C10.903 17.7961 10.3485 18.0095 9.77865 17.9997C9.20876 17.9899 8.66064 17.7576 8.2324 17.3444L2.8372 12.1382C2.26053 11.5981 1.79757 10.9268 1.48036 10.1707C1.16314 9.41464 0.999242 8.59187 1 7.75934Z" fill="#222222"/>
</svg>
