<svg width="62" height="62" viewBox="0 0 62 62" fill="none" xmlns="http://www.w3.org/2000/svg">
<g clip-path="url(#clip0_1589_678)">
<path d="M9.80004 50.7812C9.29026 50.7812 8.80136 50.987 8.4409 51.3533C8.08043 51.7196 7.87792 52.2164 7.87792 52.7344C7.87792 53.2524 8.08043 53.7492 8.4409 54.1154C8.80136 54.4817 9.29026 54.6875 9.80004 54.6875H29.0233C29.5331 54.6875 30.022 54.4817 30.3825 54.1154C30.7429 53.7492 30.9454 53.2524 30.9454 52.7344C30.9454 52.2164 30.7429 51.7196 30.3825 51.3533C30.022 50.987 29.5331 50.7812 29.0233 50.7812H9.80004ZM9.81234 39.0625C9.30257 39.0625 8.81367 39.2683 8.4532 39.6346C8.09273 40.0008 7.89022 40.4976 7.89022 41.0156C7.89022 41.5336 8.09273 42.0304 8.4532 42.3967C8.81367 42.763 9.30257 42.9688 9.81234 42.9688H21.3635C21.8733 42.9688 22.3622 42.763 22.7227 42.3967C23.0831 42.0304 23.2857 41.5336 23.2857 41.0156C23.2857 40.4976 23.0831 40.0008 22.7227 39.6346C22.3622 39.2683 21.8733 39.0625 21.3635 39.0625H9.81234ZM0.24581 31.25C0.24581 29.0938 1.96598 27.3438 4.08801 27.3438H57.9075C60.0315 27.3438 61.7517 29.0938 61.7517 31.25V57.6917C61.7517 58.9666 61.2534 60.1893 60.3665 61.0909C59.4795 61.9926 58.2764 62.4994 57.0217 62.5H4.97782C3.72317 62.4994 2.52009 61.9926 1.63311 61.0909C0.746128 60.1893 0.24786 58.9666 0.24786 57.6917V31.25H0.24581ZM32.8655 19.5312V3.90625C32.8655 1.75 34.5877 0 36.7118 0H47.4347C48.9642 0 50.3973 0.75 51.283 2.0125L61.6861 19.5312C61.6902 19.5312 61.6943 19.5521 61.6984 19.5896V19.625C61.8686 21.5521 60.0705 23.25 58.176 23.4229C58.0735 23.4333 57.971 23.4375 57.8685 23.4375H36.7098C35.6906 23.4369 34.7133 23.0252 33.9928 22.2927C33.2723 21.5601 32.8676 20.5669 32.8676 19.5312H32.8655ZM25.2426 23.4375H4.08596C3.98344 23.4375 3.88093 23.4333 3.77842 23.4229C1.88397 23.2521 0.0879391 21.5521 0.256061 19.625V19.5896C0.260161 19.55 0.264262 19.5312 0.268362 19.5312L10.6714 2.0125C11.1085 1.39012 11.6856 0.882804 12.3546 0.53276C13.0236 0.182716 13.7652 6.43657e-05 14.5177 0H25.2447C27.3667 0 29.0889 1.75 29.0889 3.90625V19.5312C29.0889 21.6896 27.3667 23.4375 25.2447 23.4375H25.2426Z" fill="url(#paint0_linear_1589_678)"/>
<path d="M9.80005 50.7812C9.29027 50.7812 8.80137 50.987 8.44091 51.3533C8.08044 51.7196 7.87793 52.2164 7.87793 52.7344C7.87793 53.2524 8.08044 53.7492 8.44091 54.1154C8.80137 54.4817 9.29027 54.6875 9.80005 54.6875H29.0233C29.5331 54.6875 30.022 54.4817 30.3825 54.1154C30.7429 53.7492 30.9455 53.2524 30.9455 52.7344C30.9455 52.2164 30.7429 51.7196 30.3825 51.3533C30.022 50.987 29.5331 50.7812 29.0233 50.7812H9.80005ZM9.81235 39.0625C9.30258 39.0625 8.81368 39.2683 8.45321 39.6346C8.09274 40.0008 7.89023 40.4976 7.89023 41.0156C7.89023 41.5336 8.09274 42.0304 8.45321 42.3967C8.81368 42.763 9.30258 42.9688 9.81235 42.9688H21.3635C21.8733 42.9688 22.3622 42.763 22.7227 42.3967C23.0832 42.0304 23.2857 41.5336 23.2857 41.0156C23.2857 40.4976 23.0832 40.0008 22.7227 39.6346C22.3622 39.2683 21.8733 39.0625 21.3635 39.0625H9.81235Z" fill="white"/>
</g>
<defs>
<linearGradient id="paint0_linear_1589_678" x1="51.7174" y1="0" x2="51.7174" y2="62.5" gradientUnits="userSpaceOnUse">
<stop stop-color="#FF5925"/>
<stop offset="1" stop-color="#FF0D3C"/>
</linearGradient>
<clipPath id="clip0_1589_678">
<rect width="62" height="62" fill="white"/>
</clipPath>
</defs>
</svg>
